<?xml version="1.0" encoding="UTF-8" standalone="no"?>
<svg
   xmlns:dc="http://purl.org/dc/elements/1.1/"
   xmlns:cc="http://creativecommons.org/ns#"
   xmlns:rdf="http://www.w3.org/1999/02/22-rdf-syntax-ns#"
   xmlns:svg="http://www.w3.org/2000/svg"
   xmlns="http://www.w3.org/2000/svg"
   viewBox="0 0 666.66669 666.66669"
   height="666.66669"
   width="666.66669"
   xml:space="preserve"
   id="svg2"
   version="1.1"><metadata
     id="metadata8"><rdf:RDF><cc:Work
         rdf:about=""><dc:format>image/svg+xml</dc:format><dc:type
           rdf:resource="http://purl.org/dc/dcmitype/StillImage" /></cc:Work></rdf:RDF></metadata><defs
     id="defs6" /><g
     transform="matrix(1.3333333,0,0,-1.3333333,0,666.66667)"
     id="g10"><g
       transform="scale(0.1)"
       id="g12"><path
         id="path14"
         style="fill:#f8f9fd;fill-opacity:1;fill-rule:nonzero;stroke:none"
         d="M 0,0 H 5000 V 5000 H 0 Z" /><path
         id="path16"
         style="fill:#dce8f7;fill-opacity:1;fill-rule:nonzero;stroke:none"
         d="m 4021.51,2592.08 c 0,-823.06 -667.21,-1490.27 -1490.27,-1490.27 -823.05,0 -1490.27,667.21 -1490.27,1490.27 0,823.05 667.22,1490.28 1490.27,1490.28 823.06,0 1490.27,-667.23 1490.27,-1490.28" /><path
         id="path18"
         style="fill:#dce8f7;fill-opacity:1;fill-rule:nonzero;stroke:none"
         d="m 4111.46,3796.12 c 0,-204.5 -165.78,-370.28 -370.28,-370.28 -204.49,0 -370.27,165.78 -370.27,370.28 0,204.49 165.78,370.27 370.27,370.27 204.5,0 370.28,-165.78 370.28,-370.27" /><path
         id="path20"
         style="fill:#dce8f7;fill-opacity:1;fill-rule:nonzero;stroke:none"
         d="m 2215.74,3514.36 c 0,-353.03 -286.18,-639.21 -639.22,-639.21 -353.02,0 -639.211,286.18 -639.211,639.21 0,353.03 286.191,639.21 639.211,639.21 353.04,0 639.22,-286.18 639.22,-639.21" /><path
         id="path22"
         style="fill:#dce8f7;fill-opacity:1;fill-rule:nonzero;stroke:none"
         d="m 2228.61,4249.28 c 0,-87.67 -71.07,-158.75 -158.75,-158.75 -87.67,0 -158.75,71.08 -158.75,158.75 0,87.67 71.08,158.75 158.75,158.75 87.68,0 158.75,-71.08 158.75,-158.75" /><path
         id="path24"
         style="fill:#dce8f7;fill-opacity:1;fill-rule:nonzero;stroke:none"
         d="m 3302.63,4077.79 c 0,-21.63 -17.54,-39.16 -39.16,-39.16 -21.63,0 -39.16,17.53 -39.16,39.16 0,21.63 17.53,39.16 39.16,39.16 21.62,0 39.16,-17.53 39.16,-39.16" /><path
         id="path26"
         style="fill:#1d4a51;fill-opacity:1;fill-rule:nonzero;stroke:none"
         d="m 4356.75,2128.93 c -11.01,-2.38 -25.38,0.31 -34.03,1.49 -15.04,2.11 -29.16,5.26 -42.57,12.65 -32.8,18.08 -63.76,54.37 -70.82,91.74 -1.88,9.91 -1.99,21.58 11.01,17.84 11.59,-3.38 22.06,-11.32 31.61,-18.41 21.78,-16.14 41.36,-34.99 59.92,-54.67 15.93,-16.87 32.34,-34.66 51.18,-48.48 -1.91,-0.98 -4.02,-1.67 -6.3,-2.16 m -179.76,201.58 c -14.15,2.95 -25.54,19.21 -28.3,32.34 -1.14,5.45 4.82,11.59 10.34,10.25 14.9,-3.68 33.63,-19.38 30.98,-36.65 -1.02,-6.65 -8.22,-8.88 -13.02,-5.94 m 36.91,78.57 c 8.11,3.52 17.41,-1.16 24.12,-5.65 4.7,-3.13 8.4,-7.75 12.66,-11.61 3.28,-3 6.73,-5.68 8.6,-9.93 1.42,-3.26 0.32,-8.15 -2.87,-10.07 -5.47,-3.32 -11.63,-5.27 -17.94,-4.7 l -1.02,-0.02 c -10.91,0.52 -24.16,6.88 -28.93,17.25 -3.76,8.12 -4.3,20.55 5.38,24.73 m 110.88,43.73 c 4.63,-5.3 6.46,-15.09 1.75,-20.91 -3.34,-4.1 -8.41,-4.9 -13.26,-3.31 l -0.89,0.36 c -3.85,0.92 -7.75,1.93 -10.86,4.68 -5.07,4.52 -7.88,12.26 -2.81,18.06 6.92,7.95 18.88,9.33 26.07,1.12 m -100.57,32.43 c -9.81,5.51 -13.15,20.21 -12.12,30.69 0.97,9.78 9.52,22.35 20.86,17.65 8.92,-3.7 9.15,-16.47 8.75,-24.49 -0.37,-7.26 -2.43,-17.99 -9.54,-22.64 -2.36,-1.55 -4.77,-2.98 -7.95,-1.21 m -76.21,-20 c -1.58,2.14 -2.83,4.43 -3.81,6.77 -5.03,11.92 -7.61,24.82 -7.42,34.68 0.23,12.63 1.8,26.07 7.59,37.49 2.53,4.97 9.73,8.05 14.41,3.62 20.03,-19.02 27.94,-66.52 2.58,-84.55 -4.22,-3.01 -10.24,-2.27 -13.35,1.99 m -51.56,-27.26 c -1.28,0.63 -2.54,1.33 -3.68,2.22 -2.35,1.79 -4.46,3.89 -6.42,6.09 -3.86,4.26 -7.42,8.9 -9.91,14.11 -3.83,8.11 -5.23,23.77 4.71,28.29 16.84,7.67 26.74,-26.27 26.9,-39.57 1.31,-4.54 -2.33,-14.28 -9.49,-11.77 2.38,-0.84 -1.48,0.32 -2.11,0.63 m 419.29,-276.89 c 4.04,3.84 21.58,25.29 15.94,24.74 -21.19,-2.11 -40.88,1.43 -60.05,10.63 -17.94,8.57 -41.03,19.28 -58.1,29.35 -45.18,26.68 -63.34,39.17 -96,62.54 -13.67,9.78 -28.93,23.56 -33.25,40.53 -2.44,9.6 7.54,8.66 14.11,7.61 23.26,-3.71 46.26,-15.94 66.96,-26.67 45.29,-23.52 88.45,-54.06 137.83,-68.44 27.33,-7.97 58.22,-11.31 79.1,9.15 15.87,15.56 52.55,71.75 52.55,71.75 -1.23,0.15 -8.16,0.64 -11.11,-0.67 l -0.02,0.39 c -12.45,-1.61 -35.25,3.07 -46.22,3.6 -23.54,1.14 -61.37,13.77 -75.58,17.63 -42.74,11.57 -52,21.54 -92.48,39.86 -17.26,7.83 -26.99,18.84 -41.35,31.3 -6.3,5.48 -13.05,12.56 -14.17,21.17 -1.38,10.44 10.79,13.49 18.54,14.07 15.23,1.13 31.06,-3.81 45.66,-7.57 21.6,-5.59 42.13,-14.94 62.44,-24.02 19.85,-8.85 39.7,-17.61 60.62,-23.61 20.01,-5.75 41.08,-8.18 61.85,-8.44 37.63,-0.49 77.72,10.33 94.85,47.05 0.43,0.95 1.04,5.2 1.28,6.68 0.28,1.91 2.75,24.96 3.21,34.86 0.08,1.7 0.12,3.4 0.18,5.11 -1.75,-0.46 -3.51,-0.92 -5.29,-1.34 -12.06,-2.91 -24.31,-4.92 -36.64,-6.41 -26.6,-3.18 -53.46,-5.55 -80.25,-3.82 -14.43,0.93 -30.86,2.13 -44.03,8.73 -9.86,4.96 -20.65,15.95 -14.47,27.92 5.62,10.9 20.5,13.49 31.46,14.94 14.15,1.87 28.54,1.92 42.78,1.65 33.83,-0.64 78.87,-16.29 100.12,10.08 12.16,15.09 6.26,28.42 13.89,52.63 8.53,27.16 18.96,50.98 19.69,51.29 0,0 -23.14,11.09 -41.63,26.17 -14.96,12.22 -23.57,29.64 -40.21,25.76 -4.8,-1.12 -14.43,-4.54 -18.74,-7.2 -11.37,-7.04 -22.78,-14.8 -31.63,-24.73 -15.51,-17.42 -26.95,-30.16 -47.49,-41.97 -3.65,-2.1 -15.58,-3.33 -17.2,0.3 -10.52,23.51 18,48.78 33.37,62.31 17.57,15.46 36.59,27.92 56.88,38.55 1.69,0.88 3.38,1.75 5.09,2.61 -9.88,7.79 -20.69,14.53 -32.94,17.85 -29.3,7.88 -60.18,-14.53 -80.33,-33.19 -30.76,-28.45 -46.93,-68.62 -75.1,-99.29 -6.73,-7.33 -14.31,-14.58 -22.71,-20.02 -3.89,-2.52 -9.04,-4.91 -13.71,-3.31 -5.16,1.79 -6.96,9.33 -6.76,14.09 0.85,19.3 18.48,36.75 28.4,52.19 25.03,39 43.02,82.36 71.52,119.12 4,5.15 8.19,10.13 12.59,14.91 2.93,3.19 5.55,6.32 9.24,8.56 10.02,6.02 -3.1,5.95 -8.61,7.57 -3.97,1.17 -7.69,3.11 -11.53,4.63 -9.77,3.9 -19.51,8.01 -29.63,11.02 -15.44,4.57 -31.23,6.33 -48.45,0.21 -36.5,-12.95 -55.97,-53.12 -69.58,-86.47 -10,-24.53 -17.02,-49.31 -24.58,-74.58 -7.88,-26.31 -16.23,-55.01 -32.25,-77.67 -4.03,-5.71 -11.03,-14.23 -19.05,-11.7 -10.19,3.22 -13.7,13.85 -14.55,23.43 -2.48,26.81 9.75,55.66 19.92,79.83 10.45,24.77 23.53,48.35 35.81,72.24 18.82,36.64 40.17,73.54 75.81,96.04 l 1.48,0.52 2.2,1.69 c 5.13,3.93 10.4,7.48 16.41,10.08 2.23,0.98 -76.47,38.61 -117.68,37.43 -38.63,-1.1 -69.32,-22.89 -85.93,-57.17 -15.94,-32.97 -18.8,-71.16 -23.37,-106.94 -2.21,-17.47 -5.7,-34.57 -8.8,-51.86 -3.47,-19.2 -6.24,-39.32 -16.71,-56.2 -3.36,-5.42 -5.4,-11.19 -12.81,-13.93 l -0.43,-0.4 c -3.02,0.23 -4.74,1.93 -5.79,4.56 -0.75,1.85 -1.15,4.13 -1.42,6.7 -0.84,7.8 0.13,15.87 1.03,23.63 2.43,20.96 4.19,41.75 4.8,62.87 0.74,25.55 1.12,51.18 5.57,76.42 4.07,23.12 12.11,50.42 34.12,62.55 1.11,0.61 -75.12,27.59 -109.21,11.71 -33.78,-15.74 -50.65,-49.59 -53.62,-85.42 -2.77,-33.38 6.73,-63.29 18.25,-94.01 6.24,-16.67 12.31,-33.44 16.18,-50.85 3.09,-13.95 5.07,-30.36 -2.7,-43.18 -17.52,-28.8 -58.5,42.33 -65.43,54.26 -11.49,19.76 -21.71,40.34 -27.31,62.61 -8.09,32.21 -2.71,63.38 7.86,94.21 0.6,1.74 -60.58,-35.63 -77.67,-66.48 -13.92,-25.17 -21.79,-54.44 -14.74,-82.94 6.96,-28.04 27.52,-47.16 48.72,-65.07 17.86,-15.05 45.47,-35.72 50.16,-60.99 0.19,-0.99 0.33,-2.01 0.44,-3.02 -1.56,-18.02 -19.33,-16.45 -31.02,-8.38 -10.5,7.25 -18.87,17.59 -26.51,27.65 -7.45,9.8 -14.75,20.27 -19.63,31.59 -6.65,15.47 -8.75,32.55 -14.82,48.27 -1.02,2.65 -31.67,-61.46 -21.69,-96.11 10,-34.64 22.85,-69.36 46.09,-97.48 14.93,-18.05 26.28,-28.73 48.12,-34.35 11.44,-2.93 30.18,-6.07 42.6,-4.65 32,3.7 31.43,-27.18 -5.05,-54.47 -24.98,-18.69 -23.47,-56.83 -17.26,-86.78 6.57,-31.76 30.66,-74.83 56.34,-94.51 24,-18.38 99.87,-46.35 125.15,-41.85 -19.74,20.76 -62.96,66.63 -67.54,109.21 -2.81,26.08 4.1,50.77 19.22,71.41 1.96,-41.17 19.69,-79.79 34.99,-117.53 11.55,-28.57 25.83,-58.63 52.77,-75.65 27.28,-17.25 60.77,-13.05 89.9,-3.37 17.35,5.74 34.04,13.74 49.41,23.57 11.51,7.36 23.35,16.46 30.65,28.29 13.43,-9.28 28.15,-16.41 44.81,-19.74 44.68,-8.89 74.75,24.91 103.87,52.57" /><path
         id="path28"
         style="fill:#3f8991;fill-opacity:1;fill-rule:nonzero;stroke:none"
         d="m 4036.98,2359.07 c 7.43,3.65 14.91,7.2 22.39,10.73 5.92,-29.82 -12.31,-97.72 -12.66,-104.41 -0.18,-3.27 -0.37,-6.77 -0.54,-10.38 5.53,11.73 32.2,72.29 26.97,120.26 6.11,2.83 8.53,4.84 14.64,7.58 10.08,-7.01 18.69,-14.16 26.63,-25.36 10.84,-15.27 18.09,-33.49 24.79,-50.87 11.4,-29.53 34.86,-91.74 40.12,-89.04 -3.14,15.58 -5.69,31.34 -9.26,46.69 -6.57,28.17 -17.37,56.38 -31.6,81.56 -8.06,14.22 -20.39,33.05 -36.02,43.48 12.83,5.63 25.7,11.18 38.6,16.62 51.78,-32.61 130.55,-123.11 134.63,-119.85 -2.47,2.83 -4.93,5.67 -7.37,8.5 -32.58,38.02 -66.29,92.66 -113.16,117.27 21.81,9.11 43.74,18.09 65.71,27.22 l 0.77,-0.34 c 51.53,-16.95 149.51,-71.66 158.42,-73.03 -1.36,0.86 -2.72,1.7 -4.07,2.54 -28.54,18.01 -55.66,38.22 -83.47,57.31 -14.37,9.86 -29.06,19.46 -45.35,24.36 37.55,15.44 87.58,31.42 125.73,45.43 34.99,-6.42 106.76,-25.07 113.1,-23.9 -26.09,13.24 -56.83,29.58 -87.27,36.32 15.92,5.65 31.87,11.25 47.85,16.69 35.36,12.07 70.08,24.42 104.77,38.27 29.02,11.59 60.14,16.2 85.43,35.77 1.87,1.46 -0.13,4.36 -2.13,3.03 -27.99,-18.55 -59.46,-23.94 -91.87,-29.97 -24.65,-4.6 -48.78,-12.09 -72.66,-20.03 2.64,5.59 4.99,11.42 7.58,16.94 7.13,15.18 14.06,30.47 21.17,45.67 0.62,1.35 1.29,2.7 1.94,4.05 -5.3,0.97 -49.07,-57.45 -58.11,-75.88 l -2.24,-0.74 c -36.28,-12.11 -72.82,-24.51 -109.02,-37.77 8.48,15.56 13.56,34.49 18.8,49.92 7.83,23.11 14.01,46.78 21.19,70.09 3.7,12.02 7.55,23.7 11.77,35 -3.54,-4.4 -6.93,-8.99 -10.11,-13.81 -4.87,-7.33 -27.79,-53.03 -33.8,-72.09 -8.64,-27.3 -28.17,-51 -33.6,-78.72 -24.37,-9.29 -48.53,-19.02 -72.24,-29.43 -10.92,-4.8 -21.91,-9.37 -32.9,-13.88 5.96,25.49 1.86,55.6 6.31,80.31 6.34,35.39 14.87,70.28 23.65,105.14 4.53,18 8.34,36.3 12.71,54.43 -3.87,-7.9 -7.6,-15.73 -11.23,-23.28 -3.71,-7.73 -50.54,-152.48 -51.59,-224.77 -13.47,-5.4 -26.95,-10.74 -40.41,-16.12 1.38,25.83 -9.29,53.98 -16.81,77.67 -11.95,37.71 -23.26,75.61 -31.41,114.35 -4.29,20.42 -8.35,42.08 -10.31,63.8 -1.64,-26.08 -4.04,-29.11 -3.72,-53.96 0.05,-3.31 5.15,-36.38 4.2,-38.99 4.65,-19.7 8.34,-32.95 14,-52.3 5.95,-20.35 12.64,-40.49 18.65,-60.82 5.36,-18.19 7.3,-36.96 11.9,-55.17 -11.97,-4.86 -23.91,-9.83 -35.79,-15 -5.03,21.69 -20.7,42.38 -32.95,59.66 -16.16,22.8 -34.99,43.87 -54.07,64.25 -4.55,4.87 -9.11,9.72 -13.65,14.58 0.58,-1.64 1.2,-3.27 1.75,-4.92 2.63,-7.91 25.35,-51.69 38.69,-68.2 9.97,-12.36 19.22,-25.3 27.91,-38.58 6.92,-10.56 12.32,-22.12 19.61,-32.35 -6.92,-3.12 -13.8,-6.31 -20.65,-9.62 -25.97,21.06 -61.55,31.74 -91.08,46.46 -7.2,3.58 -14.62,7.38 -21.84,11.57 3.09,-8.18 33.25,-31.64 46.76,-37.1 16.9,-6.83 35.31,-20.29 51.68,-28 -61.29,-31.11 -161.75,-66.01 -229.87,-76.42 -12.23,-1.85 -10.92,-20.22 1.61,-19.25 64.81,5.07 164.65,42.43 222.4,70.83" /><path
         id="path30"
         style="fill:#1d4a51;fill-opacity:1;fill-rule:nonzero;stroke:none"
         d="m 772.512,3143.96 c 11.652,1.42 26.32,-2.72 35.183,-4.77 15.434,-3.61 29.801,-8.22 43.035,-17.14 32.356,-21.88 61.09,-62.49 64.899,-101.97 1.016,-10.46 0.031,-22.59 -13.125,-17.48 -11.711,4.6 -21.836,13.84 -31.094,22.1 -21.097,18.82 -39.648,40.24 -57.078,62.42 -14.945,19.03 -30.309,39.05 -48.57,55.18 2.074,0.84 4.332,1.35 6.75,1.66 z m 167.676,-226.31 c 14.417,-4.4 24.718,-22.36 26.339,-36.26 0.668,-5.77 -6.097,-11.59 -11.703,-9.67 -15.133,5.22 -33.09,23.3 -28.719,40.99 1.684,6.8 9.383,8.44 14.083,4.94 z m -45.739,-78.13 c -8.758,-2.88 -17.972,2.86 -24.515,8.15 -4.598,3.69 -8,8.84 -12.059,13.26 -3.125,3.42 -6.453,6.53 -7.992,11.11 -1.172,3.52 0.437,8.5 3.933,10.2 5.989,2.93 12.567,4.36 19.071,3.18 l 1.062,-0.07 c 11.278,-1.57 24.434,-9.43 28.418,-20.64 3.141,-8.79 2.528,-21.76 -7.918,-25.19 z m -119.277,-34.95 c -4.32,5.94 -5.289,16.27 0.144,21.87 3.856,3.95 9.211,4.31 14.082,2.19 l 0.899,-0.45 c 3.906,-1.32 7.871,-2.74 10.832,-5.89 4.84,-5.18 7.023,-13.47 1.215,-19.02 -7.946,-7.6 -20.481,-7.9 -27.172,1.3 z m 101.383,-43.17 c 9.668,-6.64 11.75,-22.23 9.699,-33.01 -1.93,-10.07 -11.996,-22.32 -23.328,-16.36 -8.918,4.68 -7.949,17.96 -6.781,26.25 1.066,7.51 4.226,18.46 12.039,22.61 2.593,1.39 5.238,2.65 8.371,0.51 z m 81.039,13.58 c 1.437,-2.37 2.519,-4.85 3.32,-7.39 4.102,-12.85 5.555,-26.48 4.434,-36.71 -1.438,-13.1 -4.332,-26.9 -11.422,-38.21 -3.106,-4.94 -10.86,-7.46 -15.305,-2.41 -19.008,21.64 -22.746,71.72 5.301,88.05 4.656,2.73 10.84,1.4 13.672,-3.33 z m 56.116,23.46 c 1.28,-0.78 2.52,-1.62 3.61,-2.65 2.27,-2.09 4.27,-4.47 6.1,-6.93 3.6,-4.79 6.87,-9.94 8.95,-15.59 3.23,-8.78 3.2,-25.18 -7.56,-28.94 -18.2,-6.38 -25.29,29.81 -24.19,43.63 -0.932,4.84 3.76,14.61 10.95,11.33 -2.39,1.1 1.52,-0.46 2.14,-0.85 z m -409.355,327.1 c -4.546,-3.61 -24.781,-24.22 -18.886,-24.18 22.219,0.18 42.328,-5.35 61.367,-16.7 17.82,-10.6 40.801,-23.9 57.562,-35.97 44.415,-31.97 62.11,-46.65 93.821,-74.01 13.265,-11.45 27.812,-27.19 30.707,-45.22 1.633,-10.2 -8.649,-8.28 -15.367,-6.58 -23.817,6.05 -46.543,20.92 -67.032,34.02 -44.828,28.69 -86.757,64.48 -136.687,84.08 -27.633,10.85 -59.402,17.23 -83.016,-2.05 -17.953,-14.67 -61.344,-69.56 -61.344,-69.56 1.262,-0.27 8.415,-1.44 11.598,-0.36 l -0.012,-0.4 c 13.086,0.5 36.329,-6.52 47.664,-8.1 24.348,-3.4 62.434,-20.08 76.825,-25.44 43.3,-16.04 51.98,-27.26 92.293,-50.11 17.187,-9.76 26.254,-22.12 40,-36.42 6.015,-6.28 12.363,-14.27 12.715,-23.31 0.449,-10.97 -12.477,-13 -20.583,-12.87 -15.917,0.27 -31.894,6.89 -46.703,12.17 -21.91,7.84 -42.359,19.49 -62.589,30.84 -19.778,11.06 -39.579,22.02 -60.731,30.23 -20.234,7.85 -41.887,12.37 -63.437,14.6 -39.043,4.06 -81.692,-3.4 -102.942,-39.92 -0.535,-0.94 -1.566,-5.3 -1.961,-6.81 -0.476,-1.97 -5.215,-25.67 -6.633,-35.91 -0.226,-1.75 -0.437,-3.52 -0.664,-5.29 1.871,0.32 3.739,0.63 5.625,0.89 12.801,1.89 25.711,2.83 38.668,3.2 27.914,0.8 56.039,0.73 83.692,-3.6 14.902,-2.32 31.855,-5.12 44.91,-13.21 9.777,-6.08 19.937,-18.51 12.398,-30.36 -6.867,-10.79 -22.578,-12.08 -34.086,-12.55 -14.879,-0.6 -29.812,0.69 -44.586,2.32 -35.07,3.85 -80.378,24.36 -104.929,-1.03 -14.051,-14.52 -9.192,-28.93 -19.383,-53.35 -11.43,-27.4 -24.516,-51.16 -25.285,-51.41 0,0 22.984,-13.69 40.754,-31.11 14.386,-14.1 21.691,-33 39.336,-30.54 5.086,0.72 15.418,3.35 20.144,5.71 12.473,6.24 25.055,13.22 35.18,22.71 17.754,16.62 30.836,28.78 53.281,39.1 3.988,1.83 16.484,1.99 17.828,-1.93 8.715,-25.41 -23.293,-48.96 -40.523,-61.56 -19.707,-14.4 -40.645,-25.55 -62.707,-34.68 -1.848,-0.75 -3.688,-1.5 -5.539,-2.23 9.531,-9.02 20.121,-17.04 32.531,-21.64 29.691,-10.95 63.875,9.41 86.551,26.89 34.633,26.65 55.215,66.83 87.363,96.04 7.687,6.97 16.238,13.79 25.473,18.64 4.273,2.26 9.855,4.26 14.554,2.15 5.188,-2.34 6.34,-10.34 5.688,-15.27 -2.707,-19.97 -22.656,-36.42 -34.41,-51.52 -29.68,-38.15 -52.45,-81.48 -85.52,-116.98 -4.633,-4.96 -9.469,-9.73 -14.48,-14.29 -3.34,-3.04 -6.36,-6.04 -10.403,-8.01 -10.968,-5.32 2.66,-6.49 8.223,-8.68 4.016,-1.6 7.695,-3.96 11.543,-5.9 9.785,-4.98 19.512,-10.16 29.73,-14.23 15.602,-6.21 31.836,-9.52 50.309,-4.8 39.121,10 63.125,49.9 80.406,83.25 12.699,24.53 22.324,49.6 32.559,75.13 10.664,26.59 22.047,55.61 40.824,77.63 4.731,5.56 12.793,13.74 20.887,10.35 10.277,-4.3 12.918,-15.67 12.91,-25.7 0.031,-28.08 -15.387,-56.89 -28.227,-81.03 -13.179,-24.74 -28.996,-47.99 -44.004,-71.65 -22.996,-36.28 -48.652,-72.58 -87.785,-92.59 l -1.593,-0.4 -2.442,-1.55 c -5.687,-3.6 -11.5,-6.79 -17.98,-8.92 -2.418,-0.81 75.765,-47.31 118.683,-49.97 40.223,-2.5 74.141,17.23 94.625,51.28 19.668,32.72 26.235,72.12 34.36,108.85 3.945,17.94 9.179,35.36 14.039,53.03 5.41,19.61 10.172,40.24 22.644,56.79 4.004,5.31 6.672,11.11 14.617,13.25 l 0.485,0.39 c 3.113,-0.53 4.738,-2.46 5.586,-5.29 0.597,-2 0.804,-4.4 0.847,-7.09 0.137,-8.18 -1.64,-16.47 -3.308,-24.45 -4.504,-21.53 -8.289,-42.96 -10.91,-64.84 -3.172,-26.46 -5.989,-53.05 -12.993,-78.84 -6.402,-23.63 -17.339,-51.23 -41.335,-61.75 -1.204,-0.52 75.418,-35.73 112.32,-22.46 36.565,13.17 57.275,46.73 63.745,83.66 6.02,34.41 -1.02,66.38 -10.1,99.37 -4.9,17.89 -9.62,35.88 -11.99,54.33 -1.9,14.78 -2.42,32.01 6.87,44.59 20.9,28.25 56.75,-49.48 62.83,-62.53 10.08,-21.6 18.74,-43.94 22.46,-67.59 5.37,-34.21 -3.16,-66.08 -17.05,-97.11 -0.79,-1.75 66.28,31.3 86.93,61.73 16.84,24.82 27.77,54.48 23.14,84.74 -4.58,29.78 -24.13,51.57 -44.46,72.17 -17.13,17.31 -43.87,41.39 -46.35,68.08 -0.1,1.04 -0.15,2.12 -0.17,3.17 3.32,18.57 21.63,15.26 33.01,5.78 10.22,-8.52 17.94,-20.05 24.92,-31.21 6.81,-10.88 13.42,-22.44 17.4,-34.66 5.45,-16.69 6.03,-34.63 10.84,-51.53 0.81,-2.85 38.7,60.84 31.6,97.77 -7.12,36.92 -17.2,74.18 -38.68,105.6 -13.8,20.14 -24.59,32.3 -46.74,40.2 -11.61,4.12 -30.76,9.15 -43.79,8.84 -33.58,-0.83 -30.08,31.18 10.37,56.1 27.72,17.06 29.74,56.8 26.11,88.49 -3.83,33.61 -24.78,80.61 -49.59,103.47 -23.2,21.35 -99.37,57.55 -126.032,55.26 18.542,-23.41 59.102,-75.13 59.842,-119.79 0.46,-27.34 -9.04,-52.34 -26.69,-72.34 1.84,42.94 -12.94,84.71 -25.253,125.36 -9.313,30.76 -21.301,63.32 -47.676,83.55 -26.711,20.47 -61.883,19.28 -93.055,11.97 -18.554,-4.33 -36.64,-11.06 -53.527,-19.82 -12.652,-6.56 -25.805,-14.89 -34.504,-26.49 -13.082,10.9 -27.699,19.7 -44.687,24.73 -45.563,13.44 -79.981,-18.82 -112.833,-44.81" /><path
         id="path32"
         style="fill:#3f8991;fill-opacity:1;fill-rule:nonzero;stroke:none"
         d="m 1082.91,2874.79 c -8.08,-3.1 -16.17,-6.08 -24.28,-9.03 -3.34,31.52 22.01,100.32 23,107.23 0.49,3.39 1.02,6.99 1.54,10.73 -6.85,-11.66 -40.26,-72.04 -39.35,-122.36 -6.61,-2.35 -9.31,-4.21 -15.92,-6.49 -9.8,8.24 -18.08,16.47 -25.27,28.86 -9.817,16.88 -15.622,36.48 -20.946,55.16 -9.051,31.75 -27.551,98.56 -33.262,96.27 1.789,-16.49 2.945,-33.09 5.207,-49.37 4.168,-29.88 12.726,-60.2 25.137,-87.68 7.019,-15.54 18.054,-36.25 33.304,-48.55 -13.863,-4.65 -27.746,-9.19 -41.648,-13.62 -50.715,38.73 -123.992,140.16 -128.535,137.15 2.297,-3.16 4.59,-6.34 6.859,-9.52 30.254,-42.55 60.106,-102.48 106.469,-132.46 -23.516,-7.4 -47.129,-14.66 -70.817,-22.07 l -0.769,0.43 c -51.918,22.46 -148.524,88.51 -157.637,90.77 1.328,-1.01 2.66,-2.01 3.985,-3.02 27.945,-21.39 54.199,-44.93 81.285,-67.38 13.988,-11.6 28.343,-22.95 44.801,-29.59 -40.454,-12.49 -93.918,-24.36 -134.868,-35.32 -35.726,9.97 -108.5,36.11 -115.195,35.5 25.84,-16.21 56.23,-36.08 87.207,-45.97 -17.074,-4.36 -34.16,-8.67 -51.277,-12.81 -37.86,-9.21 -75.078,-18.76 -112.41,-29.87 -31.235,-9.3 -63.997,-11.15 -92.094,-29.09 -2.094,-1.34 -0.278,-4.54 1.922,-3.35 30.812,16.63 64.015,19.25 98.23,22.47 26.051,2.44 51.801,7.95 77.36,13.95 -3.282,-5.56 -6.262,-11.39 -9.469,-16.88 -8.844,-15.1 -17.481,-30.33 -26.289,-45.44 -0.785,-1.35 -1.602,-2.68 -2.403,-4.02 5.414,-1.5 56.371,55.04 67.508,73.32 l 2.391,0.56 c 38.82,9.15 77.941,18.59 116.797,28.95 -10.285,-15.36 -17.352,-34.54 -24.235,-50.08 -10.312,-23.25 -18.968,-47.26 -28.617,-70.79 -4.984,-12.14 -10.094,-23.89 -15.539,-35.24 4.098,4.24 8.047,8.68 11.816,13.39 5.743,7.15 33.848,52.45 41.903,71.69 11.535,27.53 34.051,50.3 42.312,78.58 26.188,7.35 52.2,15.18 77.805,23.75 11.789,3.95 23.633,7.67 35.477,11.32 -8.598,-25.91 -7.188,-57.58 -14.125,-82.82 -9.934,-36.16 -22.079,-71.59 -34.477,-106.96 -6.406,-18.27 -12.094,-36.92 -18.344,-55.33 4.774,7.84 9.387,15.62 13.864,23.12 4.585,7.68 66.855,153.59 74.773,228.58 14.496,4.33 29.012,8.59 43.492,12.92 -3.871,-26.69 4.559,-56.93 10.129,-82.25 8.852,-40.29 17.023,-80.72 21.843,-121.72 2.53,-21.61 4.7,-44.49 4.69,-67.23 4.15,26.93 6.94,29.85 8.95,55.69 0.26,3.44 -1.91,38.27 -0.69,40.89 -2.97,20.9 -5.55,35 -9.6,55.64 -4.27,21.69 -9.318,43.23 -13.634,64.92 -3.856,19.4 -4.094,39.07 -7.164,58.42 12.894,3.92 25.768,7.95 38.588,12.19 3.17,-22.99 17.5,-45.95 28.59,-65.06 14.64,-25.21 32.21,-48.86 50.1,-71.83 4.27,-5.48 8.54,-10.94 12.8,-16.43 -0.43,1.77 -0.93,3.52 -1.34,5.29 -1.99,8.46 -21.46,56.06 -33.76,74.47 -9.18,13.78 -17.57,28.08 -25.35,42.7 -6.2,11.62 -10.72,24.13 -17.31,35.45 7.48,2.59 14.92,5.25 22.34,8.04 24.99,-24.32 60.94,-38.77 90.22,-56.84 7.13,-4.4 14.49,-9.04 21.59,-14.08 -2.44,8.79 -31.55,36 -45.07,42.95 -16.9,8.68 -34.75,24.4 -51.03,33.95 66.59,26.52 174.22,53.3 245.95,57.69 12.87,0.76 13.24,19.98 0.14,20.14 -67.8,0.84 -175,-28.54 -237.65,-52.58" /><path
         id="path34"
         style="fill:#3f8991;fill-opacity:1;fill-rule:nonzero;stroke:none"
         d="m 3617.41,2106.15 -0.81,0.36 c -2.56,1.41 -3.47,4.64 -2.07,7.18 1.13,2.05 115.21,207.4 289.46,456.47 160.9,229.96 407.52,545.32 668.71,741.74 2.36,1.76 5.69,1.26 7.41,-1.05 1.75,-2.33 1.29,-5.64 -1.05,-7.4 -260.05,-195.55 -505.9,-509.95 -666.35,-739.26 -173.96,-248.61 -287.8,-453.57 -288.93,-455.61 -1.26,-2.29 -3.98,-3.27 -6.37,-2.43" /><path
         id="path36"
         style="fill:#3f8991;fill-opacity:1;fill-rule:nonzero;stroke:none"
         d="m 4584.37,3406.33 c -6.58,-34.12 -97.75,-174.93 -97.75,-174.93 0,0 -32.37,164.6 -25.8,198.71 6.57,34.12 39.55,56.45 73.66,49.88 34.12,-6.57 56.45,-39.55 49.89,-73.66" /><path
         id="path38"
         style="fill:#3f8991;fill-opacity:1;fill-rule:nonzero;stroke:none"
         d="m 4601.72,3084.9 c -34.43,4.65 -180.12,87.81 -180.12,87.81 0,0 162.53,41.52 196.95,36.87 34.44,-4.65 58.58,-36.33 53.93,-70.76 -4.66,-34.44 -36.34,-58.58 -70.76,-53.92" /><path
         id="path40"
         style="fill:#3f8991;fill-opacity:1;fill-rule:nonzero;stroke:none"
         d="m 4389.2,3332.71 c 8.76,-33.62 -12.88,-199.97 -12.88,-199.97 0,0 -100.1,134.61 -108.87,168.23 -8.76,33.62 11.39,67.98 45.01,76.74 33.61,8.76 67.97,-11.38 76.74,-45" /><path
         id="path42"
         style="fill:#3f8991;fill-opacity:1;fill-rule:nonzero;stroke:none"
         d="m 4458.83,2935.53 c -34.03,7.02 -173.63,100.04 -173.63,100.04 0,0 165.01,30.2 199.04,23.18 34.02,-7.01 55.92,-40.28 48.9,-74.31 -7.02,-34.02 -40.29,-55.92 -74.31,-48.91" /><path
         id="path44"
         style="fill:#3f8991;fill-opacity:1;fill-rule:nonzero;stroke:none"
         d="m 4330.49,2804.32 c -34.74,0.51 -189.31,65.69 -189.31,65.69 0,0 156.42,60.62 191.15,60.11 34.74,-0.51 62.49,-29.08 61.98,-63.82 -0.51,-34.74 -29.09,-62.49 -63.82,-61.98" /><path
         id="path46"
         style="fill:#3f8991;fill-opacity:1;fill-rule:nonzero;stroke:none"
         d="m 4189.71,2604.87 c -31.9,13.77 -149.74,133.17 -149.74,133.17 0,0 167.71,-3.89 199.61,-17.66 31.89,-13.77 46.58,-50.79 32.81,-82.69 -13.77,-31.89 -50.79,-46.59 -82.68,-32.82" /><path
         id="path48"
         style="fill:#3f8991;fill-opacity:1;fill-rule:nonzero;stroke:none"
         d="m 4217.73,3172.1 c 12.47,-32.43 9.55,-200.16 9.55,-200.16 0,0 -114.52,122.59 -126.99,155.02 -12.46,32.42 3.72,68.82 36.16,81.29 32.42,12.46 68.81,-3.72 81.28,-36.15" /><path
         id="path50"
         style="fill:#3f8991;fill-opacity:1;fill-rule:nonzero;stroke:none"
         d="m 4135.37,2996.34 c 1.48,-34.71 -54.74,-192.77 -54.74,-192.77 0,0 -69.48,152.68 -70.96,187.4 -1.49,34.71 25.46,64.05 60.16,65.53 34.71,1.48 64.06,-25.45 65.54,-60.16" /><path
         id="path52"
         style="fill:#3f8991;fill-opacity:1;fill-rule:nonzero;stroke:none"
         d="m 3938.97,2842.92 c 14.72,-31.46 23.63,-198.98 23.63,-198.98 0,0 -122.87,114.21 -137.59,145.68 -14.72,31.47 -1.14,68.91 30.33,83.63 31.47,14.72 68.91,1.14 83.63,-30.33" /><path
         id="path54"
         style="fill:#3f8991;fill-opacity:1;fill-rule:nonzero;stroke:none"
         d="m 4746.22,3349.02 c -28.4,-20 -191.77,-58.12 -191.77,-58.12 0,0 90.92,140.98 119.33,160.98 28.41,20.01 67.65,13.2 87.66,-15.21 20,-28.4 13.19,-67.65 -15.22,-87.65" /><path
         id="path56"
         style="fill:#3f8991;fill-opacity:1;fill-rule:nonzero;stroke:none"
         d="m 3854.34,1938.45 -0.31,-0.37 c -0.86,-1.29 -0.49,-3.05 0.79,-3.91 1.05,-0.68 105.51,-69.77 249.2,-144.72 132.69,-69.21 326.92,-157.72 498.79,-186.38 1.54,-0.26 2.99,0.79 3.24,2.31 0.26,1.53 -0.78,2.99 -2.32,3.24 -171.11,28.54 -364.74,116.79 -497.04,185.79 -143.45,74.82 -247.71,143.77 -248.75,144.46 -1.16,0.77 -2.69,0.56 -3.6,-0.42" /><path
         id="path58"
         style="fill:#3f8991;fill-opacity:1;fill-rule:nonzero;stroke:none"
         d="m 4631.54,1561.26 c -11.49,14.52 -89.25,58.71 -89.25,58.71 0,0 25.17,-85.83 36.67,-100.35 11.5,-14.52 32.59,-16.97 47.11,-5.47 14.53,11.49 16.98,32.59 5.47,47.11" /><path
         id="path60"
         style="fill:#3f8991;fill-opacity:1;fill-rule:nonzero;stroke:none"
         d="m 4560.69,1717.58 c -15.14,-10.67 -63.6,-85.84 -63.6,-85.84 0,0 87.1,20.33 102.24,31 15.14,10.67 18.77,31.6 8.1,46.74 -10.67,15.14 -31.59,18.77 -46.74,8.1" /><path
         id="path62"
         style="fill:#3f8991;fill-opacity:1;fill-rule:nonzero;stroke:none"
         d="m 4521.12,1548.08 c -4.13,18.06 -55.28,91.42 -55.28,91.42 0,0 -14.24,-88.3 -10.12,-106.36 4.12,-18.05 22.11,-29.35 40.17,-25.22 18.06,4.12 29.35,22.1 25.23,40.16" /><path
         id="path64"
         style="fill:#3f8991;fill-opacity:1;fill-rule:nonzero;stroke:none"
         d="m 4456.36,1753.09 c -14.37,-11.69 -57.52,-90.03 -57.52,-90.03 0,0 85.48,26.3 99.85,37.98 14.37,11.69 16.54,32.82 4.85,47.19 -11.68,14.37 -32.81,16.55 -47.18,4.86" /><path
         id="path66"
         style="fill:#3f8991;fill-opacity:1;fill-rule:nonzero;stroke:none"
         d="m 4363.38,1783.58 c -16.31,-8.78 -73.39,-77.63 -73.39,-77.63 0,0 88.9,9.8 105.21,18.58 16.3,8.79 22.4,29.13 13.61,45.44 -8.78,16.31 -29.12,22.4 -45.43,13.61" /><path
         id="path68"
         style="fill:#3f8991;fill-opacity:1;fill-rule:nonzero;stroke:none"
         d="m 4247.72,1843.3 c -11.69,-14.35 -38.07,-99.81 -38.07,-99.81 0,0 78.38,43.08 90.08,57.44 11.7,14.36 9.54,35.49 -4.82,47.19 -14.36,11.7 -35.49,9.55 -47.19,-4.82" /><path
         id="path70"
         style="fill:#3f8991;fill-opacity:1;fill-rule:nonzero;stroke:none"
         d="m 4400.5,1581.87 c -2.08,18.41 -44.72,97.04 -44.72,97.04 0,0 -24.01,-86.16 -21.93,-104.56 2.08,-18.41 18.68,-31.64 37.09,-29.56 18.41,2.08 31.64,18.68 29.56,37.08" /><path
         id="path72"
         style="fill:#3f8991;fill-opacity:1;fill-rule:nonzero;stroke:none"
         d="m 4318.31,1644.77 c -7.84,16.77 -73.31,77.71 -73.31,77.71 0,0 4.69,-89.32 12.53,-106.09 7.83,-16.79 27.79,-24.05 44.58,-16.2 16.78,7.83 24.03,27.79 16.2,44.58" /><path
         id="path74"
         style="fill:#3f8991;fill-opacity:1;fill-rule:nonzero;stroke:none"
         d="m 4187.67,1669.02 c -0.78,18.51 -37.77,99.94 -37.77,99.94 0,0 -30.03,-84.24 -29.26,-102.75 0.79,-18.51 16.42,-32.88 34.93,-32.11 18.5,0.78 32.88,16.42 32.1,34.92" /><path
         id="path76"
         style="fill:#3f8991;fill-opacity:1;fill-rule:nonzero;stroke:none"
         d="m 4694.01,1628.18 c -18.35,2.47 -105.01,-19.67 -105.01,-19.67 0,0 77.69,-44.33 96.05,-46.8 18.36,-2.48 35.24,10.39 37.72,28.75 2.47,18.36 -10.4,35.24 -28.76,37.72" /><path
         id="path78"
         style="fill:#3f8991;fill-opacity:1;fill-rule:nonzero;stroke:none"
         d="m 1178.35,2242.51 0.39,-0.27 c 1.2,-1 1.35,-2.78 0.36,-3.97 -0.8,-0.96 -81.33,-96.88 -197.776,-209.6 -107.531,-104.07 -268.586,-244.15 -425.211,-320.5 -1.406,-0.68 -3.101,-0.08 -3.769,1.3 -0.68,1.4 -0.098,3.09 1.301,3.77 155.941,76.01 316.488,215.67 423.714,319.44 116.251,112.51 196.611,208.25 197.411,209.2 0.89,1.08 2.42,1.31 3.58,0.63" /><path
         id="path80"
         style="fill:#3f8991;fill-opacity:1;fill-rule:nonzero;stroke:none"
         d="m 540.445,1659.92 c 6.895,17.2 68.891,81.66 68.891,81.66 0,0 0.258,-89.43 -6.637,-106.63 -6.894,-17.19 -26.422,-25.54 -43.613,-18.64 -17.191,6.89 -25.539,26.42 -18.641,43.61" /><path
         id="path82"
         style="fill:#3f8991;fill-opacity:1;fill-rule:nonzero;stroke:none"
         d="m 563.93,1829.94 c 17.554,-5.93 85.386,-64.22 85.386,-64.22 0,0 -89.281,-5.26 -106.836,0.66 -17.546,5.92 -26.976,24.96 -21.05,42.51 5.925,17.55 24.953,26.97 42.5,21.05" /><path
         id="path84"
         style="fill:#3f8991;fill-opacity:1;fill-rule:nonzero;stroke:none"
         d="m 650.063,1678.68 c -1.18,18.49 27.007,103.37 27.007,103.37 0,0 38.754,-80.6 39.938,-99.09 1.176,-18.49 -12.852,-34.43 -31.34,-35.61 -18.48,-1.18 -34.422,12.85 -35.605,31.33" /><path
         id="path86"
         style="fill:#3f8991;fill-opacity:1;fill-rule:nonzero;stroke:none"
         d="m 653.867,1893.64 c 17.102,-7.12 80.746,-69.96 80.746,-69.96 0,0 -89.437,0.91 -106.539,8.04 -17.097,7.12 -25.187,26.75 -18.062,43.85 7.117,17.11 26.75,25.19 43.855,18.07" /><path
         id="path88"
         style="fill:#3f8991;fill-opacity:1;fill-rule:nonzero;stroke:none"
         d="m 734.34,1949.32 c 18.133,-3.79 92.437,-53.58 92.437,-53.58 0,0 -88.023,-15.87 -106.152,-12.09 -18.129,3.79 -29.762,21.56 -25.973,39.69 3.786,18.13 21.555,29.77 39.688,25.98" /><path
         id="path90"
         style="fill:#3f8991;fill-opacity:1;fill-rule:nonzero;stroke:none"
         d="m 828.246,2039.45 c 15.301,-10.44 64.883,-84.88 64.883,-84.88 0,0 -87.391,19.03 -102.695,29.47 -15.297,10.44 -19.239,31.31 -8.797,46.61 10.437,15.31 31.308,19.24 46.609,8.8" /><path
         id="path92"
         style="fill:#3f8991;fill-opacity:1;fill-rule:nonzero;stroke:none"
         d="m 756.094,1745.38 c -3.239,18.23 15.289,105.73 15.289,105.73 0,0 47.519,-75.77 50.758,-94 3.234,-18.24 -8.922,-35.65 -27.161,-38.89 -18.238,-3.24 -35.648,8.92 -38.886,27.16" /><path
         id="path94"
         style="fill:#3f8991;fill-opacity:1;fill-rule:nonzero;stroke:none"
         d="m 817.016,1829.03 c 2.746,18.32 48.183,95.36 48.183,95.36 0,0 20.899,-86.97 18.16,-105.29 -2.746,-18.31 -19.812,-30.95 -38.132,-28.2 -18.325,2.74 -30.95,19.81 -28.211,38.13" /><path
         id="path96"
         style="fill:#3f8991;fill-opacity:1;fill-rule:nonzero;stroke:none"
         d="m 935.367,1889.43 c -4.515,17.97 7.797,106.56 7.797,106.56 0,0 52.742,-72.24 57.256,-90.2 4.52,-17.97 -6.381,-36.19 -24.346,-40.7 -17.965,-4.52 -36.191,6.38 -40.707,24.34" /><path
         id="path98"
         style="fill:#3f8991;fill-opacity:1;fill-rule:nonzero;stroke:none"
         d="m 461.523,1706.33 c 16.899,7.59 106.274,10.98 106.274,10.98 0,0 -61.879,-64.58 -78.774,-72.17 -16.898,-7.59 -36.75,-0.05 -44.339,16.84 -7.594,16.9 -0.055,36.75 16.839,44.35" /><path
         id="path100"
         style="fill:#3f8991;fill-opacity:1;fill-rule:nonzero;stroke:none"
         d="m 1464.26,2293.65 0.86,0.23 c 2.75,1 4.16,4.04 3.16,6.77 -0.8,2.2 -81.6,222.78 -215.06,495.88 -123.24,252.16 -317.9,602 -545.415,836.59 -2.047,2.1 -5.41,2.13 -7.473,0.12 -2.09,-2.03 -2.148,-5.38 -0.113,-7.47 226.523,-233.58 420.561,-582.33 543.461,-833.78 133.24,-272.62 213.87,-492.76 214.67,-494.95 0.89,-2.46 3.43,-3.85 5.91,-3.39" /><path
         id="path102"
         style="fill:#3f8991;fill-opacity:1;fill-rule:nonzero;stroke:none"
         d="m 710.953,3728.21 c 1.192,-34.72 69.395,-187.98 69.395,-187.98 0,0 57.539,157.57 56.347,192.29 -1.191,34.73 -30.308,61.91 -65.031,60.72 -34.723,-1.19 -61.902,-30.31 -60.711,-65.03" /><path
         id="path104"
         style="fill:#3f8991;fill-opacity:1;fill-rule:nonzero;stroke:none"
         d="m 643.895,3413.38 c 34.734,-0.75 191.57,58.77 191.57,58.77 0,0 -154.113,66.26 -188.844,67.01 -34.734,0.75 -63.508,-26.8 -64.258,-61.53 -0.754,-34.73 26.797,-63.5 61.532,-64.25" /><path
         id="path106"
         style="fill:#3f8991;fill-opacity:1;fill-rule:nonzero;stroke:none"
         d="m 892.32,3625.18 c -13.879,-31.85 -18.332,-199.55 -18.332,-199.55 0,0 119.789,117.44 133.672,149.29 13.88,31.85 -0.69,68.92 -32.543,82.8 -31.851,13.88 -68.922,-0.69 -82.797,-32.54" /><path
         id="path108"
         style="fill:#3f8991;fill-opacity:1;fill-rule:nonzero;stroke:none"
         d="m 761.855,3243.64 c 34.704,1.64 187.063,71.85 187.063,71.85 0,0 -158.32,55.47 -193.023,53.82 -34.704,-1.65 -61.504,-31.12 -59.856,-65.82 1.649,-34.7 31.113,-61.5 65.816,-59.85" /><path
         id="path110"
         style="fill:#3f8991;fill-opacity:1;fill-rule:nonzero;stroke:none"
         d="m 868.262,3094.09 c 34.394,-4.9 197.208,35.49 197.208,35.49 0,0 -145.103,84.17 -179.497,89.07 -34.395,4.89 -66.246,-19.04 -71.133,-53.43 -4.895,-34.39 19.027,-66.25 53.422,-71.13" /><path
         id="path112"
         style="fill:#3f8991;fill-opacity:1;fill-rule:nonzero;stroke:none"
         d="m 976.363,2875.2 c 33.647,8.64 168.597,108.29 168.597,108.29 0,0 -166.272,22.2 -199.925,13.55 -33.648,-8.65 -53.914,-42.94 -45.262,-76.59 8.649,-33.64 42.942,-53.91 76.59,-45.25" /><path
         id="path114"
         style="fill:#3f8991;fill-opacity:1;fill-rule:nonzero;stroke:none"
         d="m 1036.76,3439.89 c -17.35,-30.1 -40.51,-196.24 -40.51,-196.24 0,0 132.16,103.31 149.52,133.41 17.35,30.1 7.01,68.56 -23.09,85.91 -30.1,17.36 -68.56,7.02 -85.92,-23.08" /><path
         id="path116"
         style="fill:#3f8991;fill-opacity:1;fill-rule:nonzero;stroke:none"
         d="m 1090.83,3253.47 c -6.85,-34.06 24.14,-198.92 24.14,-198.92 0,0 92.35,140.03 99.2,174.1 6.86,34.06 -15.2,67.22 -49.25,74.08 -34.07,6.85 -67.23,-15.2 -74.09,-49.26" /><path
         id="path118"
         style="fill:#3f8991;fill-opacity:1;fill-rule:nonzero;stroke:none"
         d="m 1261.03,3071.42 c -19.43,-28.8 -54.25,-192.9 -54.25,-192.9 0,0 139.11,93.74 158.54,122.54 19.43,28.8 11.83,67.9 -16.97,87.33 -28.8,19.43 -67.9,11.83 -87.32,-16.97" /><path
         id="path120"
         style="fill:#3f8991;fill-opacity:1;fill-rule:nonzero;stroke:none"
         d="m 542.156,3696.74 c 24.957,-24.18 180.422,-87.19 180.422,-87.19 0,0 -67.926,153.38 -92.883,177.55 -24.949,24.17 -64.777,23.54 -88.949,-1.41 -24.176,-24.95 -23.539,-64.78 1.41,-88.95" /><path
         id="path122"
         style="fill:#2b6c74;fill-opacity:1;fill-rule:nonzero;stroke:none"
         d="m 3788.29,2932.12 c -89.89,33.34 -116.97,153.34 -47.13,290.97 65.31,128.68 146.55,135.45 207.23,166.2 48.68,24.68 95.08,67.65 95.08,67.65 0,0 147.09,-138.44 141.81,-315.96 -3.39,-113.83 -28.29,-220.9 -117.08,-267.63 -46.83,-24.64 -134.94,-14.13 -161.38,25.11 -23.08,34.24 -22.28,60.4 -22.28,60.4 0,0 -43.49,-46.31 -96.25,-26.74" /><path
         id="path124"
         style="fill:#1d4a51;fill-opacity:1;fill-rule:nonzero;stroke:none"
         d="m 4098.99,3107.22 c -33.52,12.47 -68.95,19.06 -104.57,19.18 -9.87,0.03 -19.75,-0.56 -29.57,-1.61 -7.28,-0.79 -15.21,-1.61 -22.28,-4.22 1.53,5.86 3.07,11.72 4.61,17.57 5.67,21.42 11.68,42.72 17.99,63.92 11.78,4.88 23.41,10.18 35.58,14.16 17.8,5.81 36.15,9.6 54.77,11.34 35.3,3.29 70.94,-1.02 104.71,-12.17 6.79,-2.25 13.48,-4.76 20.07,-7.54 -0.18,1.07 -0.38,2.14 -0.58,3.22 -0.2,1.08 -0.4,2.17 -0.61,3.25 -0.21,1.06 -0.43,2.12 -0.65,3.17 -2.65,1.06 -5.32,2.08 -7.99,3.04 -17.16,6.18 -34.92,10.54 -52.93,13.01 -37.14,5.07 -74.92,1.99 -110.87,-8.61 -13.23,-3.9 -26.82,-8.52 -39.18,-15.16 8.7,28.85 17.97,57.49 27.79,85.9 12.32,5.11 24.12,11.74 36.85,15.97 15.99,5.31 32.58,8.57 49.35,9.76 16.77,1.19 33.62,0.32 50.2,-2.69 4.19,-0.76 8.35,-1.66 12.49,-2.68 l -0.49,0.98 -1.2,2.44 c -0.65,1.3 -1.31,2.59 -1.96,3.87 l -0.87,1.7 c -2.16,0.45 -4.33,0.88 -6.51,1.25 -17.19,2.97 -34.8,3.78 -52.17,2.46 -17.37,-1.32 -34.61,-4.8 -51.16,-10.36 -10.37,-3.49 -21.65,-7.63 -31.4,-13.67 10.19,29.09 21.14,57.86 33.03,86.16 0.63,1.5 1.26,2.99 1.9,4.49 9.16,7.09 18.86,13.26 30,17.42 5.15,1.92 10.42,3.43 15.78,4.51 l -1.32,1.64 -1.16,1.42 -1.66,2.01 -0.11,0.13 c -4.29,-1.01 -8.52,-2.24 -12.65,-3.76 -8.65,-3.19 -16.86,-7.47 -24.4,-12.84 4.22,9.81 8.5,19.58 12.88,29.29 1.48,3.27 3.02,6.48 4.55,9.68 l -0.27,0.29 -1.83,1.95 -0.35,0.36 -1.33,1.4 -0.59,0.62 -0.95,0.98 -0.57,0.59 -0.84,0.85 -0.51,0.53 -0.72,0.71 -0.49,0.5 -0.57,0.57 -0.44,0.44 -0.25,0.26 v -0.01 c -1.31,1.29 -2.03,1.98 -2.03,1.98 0,0 -0.72,-0.66 -2.04,-1.85 -0.82,-1.6 -1.63,-3.21 -2.46,-4.85 -6.47,-12.81 -12.77,-25.73 -18.65,-38.88 -3.9,-8.71 -7.68,-17.47 -11.4,-26.27 -0.93,9.92 -2.78,19.71 -5.77,29.45 -0.78,2.55 -1.63,5.06 -2.52,7.57 -1.54,-1.14 -3.12,-2.28 -4.72,-3.43 0.7,-1.99 1.38,-4 2.01,-6.02 3.41,-10.92 6.32,-22.16 8.52,-33.48 -6.42,-15.44 -12.59,-31.02 -18.53,-46.71 -3.78,-10 -7.43,-20.04 -10.99,-30.13 -1.52,5.1 -3.25,10.13 -5.31,15.02 -5.27,12.45 -11.81,24.37 -19.46,35.45 -6.84,9.89 -14.6,19.17 -23.12,27.59 -2.36,-1 -4.74,-1.99 -7.16,-2.98 9.14,-8.66 17.42,-18.16 24.7,-28.52 7.41,-10.54 13.79,-21.86 18.92,-33.75 2.56,-5.94 5.03,-11.92 7.12,-18.05 0.41,-1.23 0.79,-2.51 1.16,-3.8 -8.19,-23.64 -15.84,-47.47 -23.26,-71.41 -11,28.16 -30.24,53.19 -50.28,75.04 -11.86,12.93 -24.76,24.87 -38.51,35.64 -4.75,3.73 -9.61,7.29 -14.55,10.73 -2.26,-1.35 -4.52,-2.74 -6.78,-4.18 5.67,-3.84 11.24,-7.86 16.65,-12.07 13.54,-10.53 26.26,-22.2 37.99,-34.83 21.24,-22.88 37.15,-49.28 53.88,-75.46 -5.04,-16.35 -10.01,-32.75 -14.95,-49.16 -3.71,-12.31 -7.35,-24.64 -10.94,-36.99 -2.28,4.57 -5.15,8.88 -7.94,13 -4.85,7.16 -10.05,14.05 -15.58,20.66 -10.87,12.99 -22.83,24.99 -35.75,35.8 -25.87,21.64 -55.41,38.54 -86.93,49.65 -5.72,2.02 -11.55,3.91 -17.45,5.59 -1.24,-1.97 -2.48,-3.98 -3.71,-6.02 4.16,-1.06 8.3,-2.21 12.42,-3.52 15.91,-5.09 31.34,-11.79 46.09,-19.81 28.83,-15.71 55.01,-36.67 76.76,-61.7 6.13,-7.07 11.91,-14.49 17.34,-22.13 4.26,-6 8.09,-12.53 12.79,-18.22 -5.41,-18.67 -10.68,-37.4 -15.89,-56.15 -3.32,4.38 -8.33,8.18 -12.07,11.18 -6.35,5.11 -13.03,9.87 -19.88,14.26 -14.24,9.14 -29.27,16.97 -44.82,23.42 -30.64,12.72 -63.18,20.13 -96.13,21.8 -7.56,0.38 -15.17,0.55 -22.75,0.27 -0.62,-2.62 -1.22,-5.23 -1.77,-7.83 5.56,0.2 11.13,0.31 16.69,0.18 16.42,-0.37 32.79,-2.29 48.91,-5.57 31.39,-6.4 61.69,-18.16 89.35,-34.77 8.04,-4.82 15.91,-10.01 23.49,-15.56 5.11,-3.74 11.33,-9.67 17.61,-12.34 -5.41,-19.6 -10.73,-39.22 -15.99,-58.87 -2.52,1.56 -5.2,2.87 -7.59,4.13 -7.13,3.75 -14.44,7.1 -21.9,10.05 -14.69,5.81 -29.92,10.19 -45.42,12.9 -31.45,5.5 -63.78,4.63 -94.83,-2.57 -3.48,-0.81 -6.98,-1.71 -10.45,-2.7 0.75,-2.94 1.58,-5.82 2.48,-8.66 5.87,1.72 11.79,3.25 17.84,4.46 18.7,3.71 37.88,5.06 56.92,4.09 19.26,-0.99 38.49,-4.5 56.97,-10.25 9.68,-3.01 19.16,-6.73 28.35,-11.08 4.71,-2.23 10.06,-6 15.49,-8.37 -1.88,-7.07 -3.76,-14.13 -5.62,-21.2 -3.24,0.33 -6.85,-0.06 -8.8,-0.1 -7.75,-0.18 -15.5,-0.85 -23.16,-2.12 -14.75,-2.44 -29.23,-6.55 -43.08,-12.31 -12.44,-5.18 -24.41,-11.65 -35.6,-19.29 2.56,-1.45 5.19,-2.83 7.88,-4.12 10.69,6.87 22.01,12.64 33.8,17.21 13.91,5.4 28.35,9.11 43.11,11.07 7.41,0.99 14.79,1.45 22.26,1.78 l 1.51,0.02 c -1.21,-4.61 -2.41,-9.23 -3.64,-13.84 -0.34,-1.32 -0.68,-2.65 -1.03,-3.97 -11.56,-44.06 -22.98,-88.18 -34.57,-132.22 -9.12,-34.63 -18.74,-69.14 -27.28,-103.95 -4.26,-17.39 -8.69,-34.73 -12.77,-52.17 -1.93,-8.22 -1.89,-16.93 -3.22,-25.35 -1.42,-8.99 -2.63,-17.66 -2.99,-26.79 -0.23,-5.48 6.85,-5.87 8.88,-1.96 3.41,6.6 6.08,13.26 8.69,20.28 1.29,3.46 2.49,6.98 3.87,10.4 1.72,4.3 4.22,8.1 5.72,12.51 4.99,14.74 8.5,30.29 12.68,45.34 8.46,30.4 16.17,61.05 24.1,91.63 11.47,44.24 22.94,88.49 34.42,132.73 0.51,1.94 1,3.88 1.51,5.82 1.82,7.03 3.65,14.06 5.47,21.09 l 1.54,-1.71 c 4.2,-4.71 8.32,-9.49 12.14,-14.56 7.22,-9.59 13.43,-20 18.52,-30.93 3.9,-8.41 7.13,-17.16 9.65,-26.11 3.35,-1.49 6.83,-2.85 10.44,-4.09 -2.84,11.76 -6.89,23.21 -12.07,34.1 -5.41,11.32 -11.98,22.01 -19.69,31.83 -4.79,6.11 -11.11,14.74 -18.41,19.66 1.23,4.73 2.46,9.47 3.69,14.2 1.81,6.97 3.61,13.94 5.39,20.91 1.18,-0.4 2.37,-0.77 3.59,-1.11 4.91,-1.35 9.84,-2.64 14.73,-4.1 10.1,-3.03 19.94,-6.9 29.47,-11.49 18.16,-8.74 35.05,-20.02 50.02,-33.79 14.92,-13.72 27.78,-29.67 38.22,-47.23 4.57,-7.69 8.42,-15.58 11.82,-23.65 3.17,1.16 6.2,2.45 9.1,3.87 -8.68,19.48 -20.56,37.69 -33.94,53.33 -21.92,25.62 -49.83,45.74 -80.79,58.01 -8.28,3.28 -16.77,6.07 -25.38,8.27 -4.61,1.18 -9.34,2.13 -14.06,2.64 l -1.53,0.13 c 4.92,19.22 9.81,38.46 14.69,57.7 14.07,-0.17 28.15,0.02 42.2,-1.53 19.77,-2.18 39.35,-6.7 58.12,-13.56 34.28,-12.52 65.68,-32.85 91.7,-58.99 7.1,-7.14 13.8,-14.7 20.02,-22.66 2.03,-2.59 3.95,-5.27 5.82,-7.97 l 0.56,0.96 c 0.98,1.78 1.94,3.58 2.89,5.4 0.53,1.01 1.04,2.04 1.56,3.07 -5.85,7.47 -12.25,14.52 -18.52,21.13 -13.13,13.85 -27.71,26.13 -43.39,36.78 -33.33,22.64 -71.76,36.9 -111.36,41.66 -15.9,1.92 -32.39,2.99 -48.32,0.73 5.01,19.68 10.04,39.35 15.17,59 6.71,-0.22 13.54,0.96 20.19,1.55 8.61,0.76 17.23,1.34 25.88,1.42 17.3,0.15 34.56,-1.09 51.66,-3.94 34.48,-5.75 67.95,-17.59 98.53,-35.06 14.15,-8.08 26.82,-17.73 39.55,-27.67 0.22,1.36 0.45,2.71 0.67,4.08 0.33,2.11 0.65,4.24 0.97,6.37 -9.63,7.59 -20.12,14.29 -30.35,20.43 -15.78,9.46 -32.39,17.41 -49.55,23.79" /><path
         id="path126"
         style="fill:#2b6c74;fill-opacity:1;fill-rule:nonzero;stroke:none"
         d="m 1181.05,3008.75 c -89.89,33.33 -116.97,153.33 -47.12,290.96 65.3,128.68 146.55,135.46 207.22,166.21 48.68,24.67 95.08,67.64 95.08,67.64 0,0 147.09,-138.44 141.81,-315.95 -3.38,-113.84 -28.29,-220.91 -117.08,-267.64 -46.83,-24.64 -134.94,-14.13 -161.38,25.11 -23.08,34.25 -22.28,60.4 -22.28,60.4 0,0 -43.49,-46.31 -96.25,-26.73" /><path
         id="path128"
         style="fill:#1d4a51;fill-opacity:1;fill-rule:nonzero;stroke:none"
         d="m 1491.75,3183.84 c -33.52,12.47 -68.95,19.07 -104.57,19.18 -9.87,0.03 -19.75,-0.55 -29.57,-1.61 -7.28,-0.79 -15.21,-1.61 -22.28,-4.22 1.53,5.87 3.06,11.72 4.62,17.58 5.67,21.42 11.67,42.72 17.97,63.91 11.79,4.88 23.42,10.19 35.59,14.16 17.8,5.81 36.16,9.6 54.77,11.34 35.3,3.3 70.94,-1.02 104.72,-12.17 6.79,-2.24 13.47,-4.76 20.07,-7.54 -0.19,1.07 -0.39,2.15 -0.58,3.22 -0.21,1.08 -0.41,2.17 -0.62,3.25 -0.21,1.06 -0.43,2.12 -0.65,3.18 -2.65,1.05 -5.31,2.07 -7.99,3.03 -17.16,6.18 -34.92,10.55 -52.93,13.01 -37.14,5.07 -74.92,1.99 -110.87,-8.6 -13.23,-3.9 -26.81,-8.53 -39.18,-15.17 8.7,28.85 17.97,57.49 27.8,85.91 12.31,5.1 24.11,11.74 36.84,15.96 15.99,5.31 32.58,8.57 49.35,9.76 16.78,1.19 33.62,0.32 50.2,-2.69 4.19,-0.75 8.35,-1.65 12.49,-2.68 l -0.49,0.99 -1.2,2.43 c -0.65,1.3 -1.3,2.59 -1.96,3.87 l -0.87,1.7 c -2.16,0.45 -4.32,0.88 -6.5,1.26 -17.2,2.96 -34.81,3.77 -52.17,2.45 -17.37,-1.32 -34.62,-4.79 -51.16,-10.35 -10.38,-3.49 -21.65,-7.63 -31.41,-13.68 10.2,29.09 21.14,57.87 33.03,86.16 0.63,1.5 1.27,2.99 1.9,4.49 9.16,7.09 18.86,13.26 30,17.42 5.15,1.93 10.42,3.43 15.78,4.52 l -1.32,1.63 -1.16,1.42 -1.66,2.02 -0.11,0.13 c -4.29,-1.01 -8.52,-2.25 -12.65,-3.77 -8.64,-3.18 -16.86,-7.47 -24.39,-12.84 4.21,9.81 8.49,19.58 12.87,29.29 1.48,3.27 3.02,6.48 4.55,9.68 l -0.27,0.29 -1.83,1.95 -0.34,0.36 -1.33,1.4 -0.6,0.62 -0.95,0.99 -0.58,0.58 -0.82,0.85 -0.52,0.53 -0.71,0.72 -0.5,0.5 -0.57,0.57 -0.44,0.43 -0.25,0.26 c -1.31,1.29 -2.04,1.97 -2.04,1.97 0,0 -0.7,-0.65 -2.03,-1.84 -0.81,-1.61 -1.63,-3.22 -2.45,-4.86 -6.48,-12.81 -12.78,-25.73 -18.66,-38.88 -3.89,-8.71 -7.69,-17.47 -11.4,-26.27 -0.93,9.92 -2.78,19.71 -5.77,29.46 -0.78,2.54 -1.63,5.06 -2.51,7.56 -1.55,-1.14 -3.13,-2.28 -4.72,-3.43 0.69,-1.99 1.37,-3.99 2,-6.02 3.41,-10.91 6.32,-22.15 8.53,-33.47 -6.43,-15.45 -12.6,-31.03 -18.54,-46.72 -3.78,-10 -7.43,-20.04 -10.99,-30.12 -1.52,5.09 -3.25,10.12 -5.31,15.01 -5.27,12.46 -11.8,24.37 -19.46,35.45 -6.83,9.89 -14.6,19.18 -23.12,27.59 -2.36,-1 -4.75,-1.99 -7.15,-2.98 9.12,-8.66 17.41,-18.16 24.69,-28.52 7.41,-10.54 13.79,-21.86 18.92,-33.75 2.56,-5.94 5.03,-11.91 7.12,-18.05 0.41,-1.23 0.79,-2.51 1.16,-3.8 -8.18,-23.63 -15.84,-47.47 -23.26,-71.41 -11,28.16 -30.24,53.19 -50.28,75.04 -11.86,12.93 -24.76,24.87 -38.51,35.65 -4.75,3.72 -9.61,7.29 -14.55,10.72 -2.26,-1.34 -4.52,-2.74 -6.78,-4.18 5.68,-3.83 11.24,-7.85 16.65,-12.07 13.55,-10.53 26.26,-22.2 37.99,-34.83 21.24,-22.88 37.15,-49.28 53.89,-75.45 -5.05,-16.36 -10.01,-32.76 -14.96,-49.17 -3.71,-12.31 -7.35,-24.64 -10.94,-36.99 -2.28,4.57 -5.15,8.88 -7.94,13.01 -4.85,7.16 -10.05,14.04 -15.58,20.66 -10.86,12.99 -22.83,24.99 -35.75,35.8 -25.87,21.63 -55.41,38.54 -86.92,49.64 -5.72,2.02 -11.55,3.91 -17.45,5.6 -1.24,-1.97 -2.48,-3.98 -3.71,-6.03 4.15,-1.06 8.29,-2.21 12.4,-3.52 15.92,-5.09 31.36,-11.78 46.1,-19.81 28.83,-15.7 55.01,-36.67 76.76,-61.7 6.14,-7.07 11.91,-14.48 17.34,-22.13 4.26,-5.99 8.09,-12.53 12.79,-18.21 -5.4,-18.68 -10.68,-37.4 -15.88,-56.16 -3.32,4.38 -8.35,8.19 -12.08,11.18 -6.35,5.12 -13.03,9.87 -19.88,14.26 -14.24,9.14 -29.26,16.97 -44.82,23.43 -30.63,12.71 -63.17,20.12 -96.13,21.79 -7.56,0.38 -15.17,0.55 -22.75,0.28 -0.62,-2.63 -1.22,-5.24 -1.77,-7.83 5.56,0.19 11.12,0.3 16.69,0.17 16.42,-0.37 32.8,-2.29 48.91,-5.57 31.39,-6.4 61.69,-18.15 89.35,-34.76 8.04,-4.83 15.91,-10.02 23.49,-15.57 5.11,-3.74 11.33,-9.67 17.61,-12.33 -5.41,-19.6 -10.73,-39.23 -15.98,-58.88 -2.52,1.57 -5.21,2.88 -7.6,4.13 -7.12,3.75 -14.44,7.1 -21.9,10.06 -14.69,5.8 -29.92,10.18 -45.42,12.89 -31.45,5.5 -63.78,4.63 -94.84,-2.57 -3.47,-0.81 -6.96,-1.7 -10.44,-2.7 0.75,-2.93 1.58,-5.82 2.48,-8.66 5.86,1.72 11.8,3.26 17.84,4.46 18.7,3.71 37.88,5.06 56.92,4.09 19.26,-0.99 38.49,-4.49 56.97,-10.25 9.68,-3.01 19.15,-6.73 28.35,-11.08 4.71,-2.23 10.07,-6 15.5,-8.36 -1.89,-7.07 -3.76,-14.14 -5.63,-21.21 -3.24,0.33 -6.85,-0.05 -8.8,-0.1 -7.76,-0.18 -15.5,-0.85 -23.16,-2.12 -14.75,-2.44 -29.23,-6.55 -43.08,-12.31 -12.44,-5.18 -24.41,-11.65 -35.59,-19.28 2.56,-1.46 5.18,-2.84 7.88,-4.13 10.68,6.87 21.99,12.64 33.79,17.21 13.91,5.4 28.36,9.11 43.11,11.07 7.41,0.99 14.8,1.45 22.26,1.78 l 1.52,0.02 c -1.22,-4.61 -2.43,-9.23 -3.64,-13.84 -0.35,-1.32 -0.69,-2.64 -1.04,-3.96 -11.56,-44.07 -22.97,-88.18 -34.57,-132.23 -9.12,-34.62 -18.73,-69.14 -27.27,-103.95 -4.27,-17.38 -8.69,-34.73 -12.78,-52.17 -1.92,-8.22 -1.89,-16.93 -3.22,-25.35 -1.41,-8.99 -2.63,-17.66 -2.99,-26.78 -0.22,-5.49 6.85,-5.88 8.88,-1.96 3.41,6.59 6.08,13.26 8.69,20.27 1.29,3.46 2.49,6.98 3.86,10.4 1.73,4.3 4.24,8.1 5.73,12.51 4.99,14.74 8.51,30.3 12.69,45.34 8.45,30.4 16.16,61.06 24.09,91.63 11.47,44.25 22.95,88.49 34.42,132.73 0.51,1.94 1.01,3.88 1.51,5.82 1.82,7.03 3.65,14.06 5.47,21.09 l 1.54,-1.7 c 4.21,-4.72 8.33,-9.5 12.14,-14.56 7.22,-9.6 13.43,-20 18.52,-30.94 3.91,-8.41 7.13,-17.16 9.65,-26.1 3.35,-1.5 6.84,-2.86 10.44,-4.1 -2.84,11.76 -6.88,23.21 -12.07,34.1 -5.41,11.33 -11.98,22.01 -19.69,31.84 -4.78,6.1 -11.11,14.74 -18.41,19.65 1.23,4.73 2.46,9.47 3.69,14.21 1.81,6.96 3.6,13.93 5.39,20.9 1.19,-0.4 2.38,-0.77 3.59,-1.1 4.91,-1.36 9.85,-2.65 14.74,-4.11 10.09,-3.03 19.93,-6.9 29.46,-11.48 18.16,-8.75 35.06,-20.02 50.02,-33.79 14.92,-13.73 27.78,-29.68 38.22,-47.24 4.57,-7.69 8.42,-15.58 11.82,-23.65 3.17,1.16 6.2,2.46 9.09,3.87 -8.67,19.48 -20.54,37.69 -33.93,53.33 -21.92,25.62 -49.83,45.75 -80.79,58.01 -8.28,3.29 -16.76,6.07 -25.38,8.27 -4.61,1.19 -9.34,2.13 -14.06,2.65 l -1.53,0.12 c 4.92,19.23 9.81,38.46 14.69,57.7 14.08,-0.17 28.15,0.02 42.2,-1.53 19.78,-2.18 39.36,-6.7 58.13,-13.55 34.27,-12.52 65.67,-32.85 91.69,-59 7.11,-7.14 13.8,-14.7 20.02,-22.66 2.03,-2.59 3.95,-5.26 5.83,-7.96 l 0.55,0.95 c 0.98,1.78 1.95,3.59 2.89,5.4 0.53,1.02 1.04,2.04 1.56,3.07 -5.85,7.47 -12.25,14.52 -18.52,21.13 -13.13,13.85 -27.71,26.13 -43.39,36.78 -33.33,22.64 -71.76,36.9 -111.36,41.67 -15.9,1.91 -32.39,2.98 -48.32,0.72 5.01,19.68 10.04,39.35 15.16,59 6.73,-0.22 13.55,0.96 20.2,1.55 8.62,0.77 17.23,1.34 25.88,1.42 17.31,0.15 34.56,-1.09 51.66,-3.94 34.49,-5.75 67.95,-17.59 98.53,-35.05 14.16,-8.09 26.82,-17.74 39.54,-27.68 0.23,1.36 0.46,2.72 0.68,4.09 0.34,2.11 0.66,4.23 0.97,6.36 -9.63,7.59 -20.12,14.29 -30.36,20.43 -15.77,9.46 -32.37,17.42 -49.54,23.79" /><path
         id="path130"
         style="fill:#dce8f7;fill-opacity:1;fill-rule:nonzero;stroke:none"
         d="m 4685.84,999.66 c 0,-53.91 -964.86,-97.601 -2155.08,-97.601 -1190.22,0 -2155.08,43.691 -2155.08,97.601 0,53.89 964.86,97.59 2155.08,97.59 1190.22,0 2155.08,-43.7 2155.08,-97.59" /><path
         id="path132"
         style="fill:#327c9d;fill-opacity:1;fill-rule:nonzero;stroke:none"
         d="m 1039.32,3058.62 h 3024.04 c 30.13,0 55.63,-22.24 59.73,-52.1 l 267.36,-1951.01 c 4.96,-36.21 -23.18,-68.471 -59.73,-68.471 H 1306.68 c -30.13,0 -55.64,22.251 -59.73,52.101 L 979.59,2990.15 c -4.961,36.21 23.18,68.47 59.73,68.47" /><path
         id="path134"
         style="fill:#55b7d8;fill-opacity:1;fill-rule:nonzero;stroke:none"
         d="m 1017.19,3058.62 h 3024.04 c 30.13,0 55.64,-22.24 59.73,-52.1 l 267.36,-1951.01 c 4.96,-36.21 -23.18,-68.471 -59.73,-68.471 H 1284.55 c -30.13,0 -55.63,22.251 -59.73,52.101 L 957.461,2990.15 c -4.961,36.21 23.18,68.47 59.729,68.47" /><path
         id="path136"
         style="fill:#41a6ca;fill-opacity:1;fill-rule:nonzero;stroke:none"
         d="m 4100.96,3006.52 c -4.09,29.86 -29.6,52.1 -59.73,52.1 H 1017.19 c -36.549,0 -64.69,-32.26 -59.729,-68.47 L 1224.82,1039.14 c 4.1,-29.85 29.6,-52.101 59.73,-52.101 h 2787.27 l 161.77,1051.571 -132.63,967.91" /><path
         id="path138"
         style="fill:#3f9cc6;fill-opacity:1;fill-rule:nonzero;stroke:none"
         d="m 4063.36,3058.62 -3025.35,-25.19 c -30.13,0 -55.635,-22.24 -59.725,-52.1 L 710.922,1030.32 c -4.961,-36.211 23.18,-68.468 59.726,-68.468 H 3794.69 c 30.13,0 55.63,22.25 59.72,52.098 l 268.68,1976.2 c 4.96,36.21 -23.19,68.47 -59.73,68.47" /><path
         id="path140"
         style="fill:#77d2f6;fill-opacity:1;fill-rule:nonzero;stroke:none"
         d="M 4041.06,3058.62 H 1017.02 c -30.129,0 -55.637,-22.24 -59.723,-52.1 L 689.934,1055.51 c -4.965,-36.21 23.175,-68.471 59.722,-68.471 H 3773.7 c 30.13,0 55.64,22.251 59.73,52.101 l 267.35,1951.01 c 4.97,36.21 -23.17,68.47 -59.72,68.47" /><path
         id="path142"
         style="fill:#92dbf8;fill-opacity:1;fill-rule:nonzero;stroke:none"
         d="M 1614.27,2664.83 H 1043 c -5.69,0 -10.51,-4.21 -11.28,-9.84 l -50.509,-368.56 c -0.938,-6.85 4.379,-12.94 11.285,-12.94 h 571.264 c 5.69,0 10.51,4.21 11.28,9.84 l 50.51,368.56 c 0.94,6.85 -4.38,12.94 -11.28,12.94" /><path
         id="path144"
         style="fill:#92dbf8;fill-opacity:1;fill-rule:nonzero;stroke:none"
         d="m 2357.35,2664.83 h -571.27 c -5.69,0 -10.51,-4.21 -11.28,-9.84 l -50.51,-368.56 c -0.94,-6.85 4.38,-12.94 11.29,-12.94 h 571.26 c 5.69,0 10.51,4.21 11.29,9.84 l 50.5,368.56 c 0.94,6.85 -4.38,12.94 -11.28,12.94" /><path
         id="path146"
         style="fill:#92dbf8;fill-opacity:1;fill-rule:nonzero;stroke:none"
         d="m 3100.43,2664.83 h -571.27 c -5.69,0 -10.51,-4.21 -11.28,-9.84 l -50.51,-368.56 c -0.93,-6.85 4.38,-12.94 11.29,-12.94 h 571.26 c 5.7,0 10.51,4.21 11.28,9.84 l 50.51,368.56 c 0.94,6.85 -4.38,12.94 -11.28,12.94" /><path
         id="path148"
         style="fill:#92dbf8;fill-opacity:1;fill-rule:nonzero;stroke:none"
         d="m 3843.51,2664.83 h -571.26 c -5.7,0 -10.52,-4.21 -11.29,-9.84 l -50.51,-368.56 c -0.94,-6.85 4.38,-12.94 11.29,-12.94 H 3793 c 5.69,0 10.52,4.21 11.29,9.84 l 50.5,368.56 c 0.94,6.85 -4.38,12.94 -11.28,12.94" /><path
         id="path150"
         style="fill:#92dbf8;fill-opacity:1;fill-rule:nonzero;stroke:none"
         d="M 1535.48,2157.11 H 964.219 c -5.696,0 -10.512,-4.2 -11.285,-9.84 L 902.426,1778.7 c -0.938,-6.83 4.383,-12.93 11.285,-12.93 h 571.269 c 5.69,0 10.51,4.2 11.28,9.85 l 50.51,368.55 c 0.94,6.85 -4.38,12.94 -11.29,12.94" /><path
         id="path152"
         style="fill:#3c95bd;fill-opacity:1;fill-rule:nonzero;stroke:none"
         d="M 2278.56,2157.11 H 1707.3 c -5.69,0 -10.51,-4.2 -11.28,-9.84 l -50.51,-368.57 c -0.94,-6.83 4.38,-12.93 11.28,-12.93 h 571.27 c 5.69,0 10.51,4.2 11.28,9.85 l 50.51,368.55 c 0.94,6.85 -4.38,12.94 -11.29,12.94" /><path
         id="path154"
         style="fill:#92dbf8;fill-opacity:1;fill-rule:nonzero;stroke:none"
         d="m 3021.64,2157.11 h -571.26 c -5.69,0 -10.51,-4.2 -11.28,-9.84 l -50.51,-368.57 c -0.94,-6.83 4.38,-12.93 11.28,-12.93 h 571.27 c 5.69,0 10.51,4.2 11.28,9.85 l 50.51,368.55 c 0.94,6.85 -4.39,12.94 -11.29,12.94" /><path
         id="path156"
         style="fill:#92dbf8;fill-opacity:1;fill-rule:nonzero;stroke:none"
         d="m 3764.73,2157.11 h -571.27 c -5.7,0 -10.51,-4.2 -11.28,-9.84 l -50.51,-368.57 c -0.94,-6.83 4.37,-12.93 11.28,-12.93 h 571.27 c 5.69,0 10.51,4.2 11.28,9.85 l 50.5,368.55 c 0.94,6.85 -4.37,12.94 -11.27,12.94" /><path
         id="path158"
         style="fill:#92dbf8;fill-opacity:1;fill-rule:nonzero;stroke:none"
         d="M 1456.7,1649.38 H 885.434 c -5.692,0 -10.512,-4.19 -11.286,-9.84 l -50.503,-368.55 c -0.942,-6.85 4.378,-12.94 11.281,-12.94 h 571.264 c 5.69,0 10.51,4.21 11.29,9.84 l 50.5,368.57 c 0.94,6.83 -4.38,12.92 -11.28,12.92" /><path
         id="path160"
         style="fill:#92dbf8;fill-opacity:1;fill-rule:nonzero;stroke:none"
         d="m 2199.78,1649.38 h -571.26 c -5.7,0 -10.52,-4.19 -11.29,-9.84 l -50.51,-368.55 c -0.93,-6.85 4.38,-12.94 11.29,-12.94 h 571.26 c 5.7,0 10.52,4.21 11.29,9.84 l 50.5,368.57 c 0.94,6.83 -4.38,12.92 -11.28,12.92" /><path
         id="path162"
         style="fill:#92dbf8;fill-opacity:1;fill-rule:nonzero;stroke:none"
         d="m 2942.86,1649.38 h -571.27 c -5.69,0 -10.51,-4.19 -11.28,-9.84 l -50.51,-368.55 c -0.93,-6.85 4.38,-12.94 11.29,-12.94 h 571.26 c 5.7,0 10.51,4.21 11.28,9.84 l 50.51,368.57 c 0.94,6.83 -4.37,12.92 -11.28,12.92" /><path
         id="path164"
         style="fill:#92dbf8;fill-opacity:1;fill-rule:nonzero;stroke:none"
         d="m 3685.94,1649.38 h -571.26 c -5.7,0 -10.52,-4.19 -11.29,-9.84 l -50.51,-368.55 c -0.94,-6.85 4.39,-12.94 11.29,-12.94 h 571.26 c 5.69,0 10.52,4.21 11.29,9.84 l 50.51,368.57 c 0.93,6.83 -4.39,12.92 -11.29,12.92" /><path
         id="path166"
         style="fill:#86d8f4;fill-opacity:1;fill-rule:nonzero;stroke:none"
         d="m 3875.29,1344.64 c -72.63,7.57 -143.87,18.73 -213.49,33.3 l 35.43,258.52 c 0.93,6.83 -4.39,12.92 -11.29,12.92 h -571.26 c -5.7,0 -10.52,-4.19 -11.29,-9.84 l -6.93,-50.56 c -92.27,51.88 -179.6,111.07 -261.16,176.79 h 135.84 c 5.69,0 10.51,4.2 11.28,9.85 l 50.51,368.55 c 0.94,6.85 -4.39,12.94 -11.29,12.94 h -551.27 c -50.91,72.97 -97,149.83 -137.97,230.35 l 36.23,264.43 c 0.94,6.85 -4.38,12.94 -11.28,12.94 h -140.62 c -41.56,125.17 -71.82,256.73 -89.76,393.79 h 1914.09 c 33.69,0 60.24,-27.41 60.29,-60.07 0.01,-2.76 -0.18,-5.57 -0.57,-8.4 L 3875.29,1344.64 m -681.83,812.47 c -5.7,0 -10.51,-4.2 -11.28,-9.84 l -50.51,-368.57 c -0.94,-6.83 4.37,-12.93 11.28,-12.93 h 571.27 c 5.69,0 10.51,4.2 11.28,9.85 l 50.5,368.55 c 0.94,6.85 -4.37,12.94 -11.27,12.94 h -571.27 m 78.79,507.72 c -5.7,0 -10.52,-4.21 -11.29,-9.84 l -50.51,-368.56 c -0.94,-6.85 4.38,-12.94 11.29,-12.94 H 3793 c 5.69,0 10.52,4.21 11.29,9.84 l 50.5,368.56 c 0.94,6.85 -4.38,12.94 -11.28,12.94 h -571.26 m -743.09,0 c -5.69,0 -10.51,-4.21 -11.28,-9.84 l -50.51,-368.56 c -0.93,-6.85 4.38,-12.94 11.29,-12.94 h 571.26 c 5.7,0 10.51,4.21 11.28,9.84 l 50.51,368.56 c 0.94,6.85 -4.38,12.94 -11.28,12.94 h -571.27" /><path
         id="path168"
         style="fill:#a0e0f6;fill-opacity:1;fill-rule:nonzero;stroke:none"
         d="m 2332.4,2387.46 c -44.9,88.26 -83.66,180.95 -115.67,277.37 h 140.62 c 6.9,0 12.22,-6.09 11.28,-12.94 l -36.23,-264.43" /><path
         id="path170"
         style="fill:#a0e0f6;fill-opacity:1;fill-rule:nonzero;stroke:none"
         d="m 3049.92,2273.49 h -571.26 c -6.91,0 -12.22,6.09 -11.29,12.94 l 50.51,368.56 c 0.77,5.63 5.59,9.84 11.28,9.84 h 571.27 c 6.9,0 12.22,-6.09 11.28,-12.94 l -50.51,-368.56 c -0.77,-5.63 -5.58,-9.84 -11.28,-9.84" /><path
         id="path172"
         style="fill:#a0e0f6;fill-opacity:1;fill-rule:nonzero;stroke:none"
         d="m 3793,2273.49 h -571.26 c -6.91,0 -12.23,6.09 -11.29,12.94 l 50.51,368.56 c 0.77,5.63 5.59,9.84 11.29,9.84 h 571.26 c 6.9,0 12.22,-6.09 11.28,-12.94 l -50.5,-368.56 c -0.77,-5.63 -5.6,-9.84 -11.29,-9.84" /><path
         id="path174"
         style="fill:#a0e0f6;fill-opacity:1;fill-rule:nonzero;stroke:none"
         d="M 2971.14,1765.77 H 2835.3 c -139.2,112.19 -261.85,243.63 -364.93,391.34 h 551.27 c 6.9,0 12.23,-6.09 11.29,-12.94 l -50.51,-368.55 c -0.77,-5.65 -5.59,-9.85 -11.28,-9.85" /><path
         id="path176"
         style="fill:#a0e0f6;fill-opacity:1;fill-rule:nonzero;stroke:none"
         d="m 3714.22,1765.77 h -571.27 c -6.91,0 -12.22,6.1 -11.28,12.93 l 50.51,368.57 c 0.77,5.64 5.58,9.84 11.28,9.84 h 571.27 c 6.9,0 12.21,-6.09 11.27,-12.94 l -50.5,-368.55 c -0.77,-5.65 -5.59,-9.85 -11.28,-9.85" /><path
         id="path178"
         style="fill:#a0e0f6;fill-opacity:1;fill-rule:nonzero;stroke:none"
         d="m 3661.8,1377.94 c -203.36,42.54 -393.1,114.18 -565.34,211.04 l 6.93,50.56 c 0.77,5.65 5.59,9.84 11.29,9.84 h 571.26 c 6.9,0 12.22,-6.09 11.29,-12.92 l -35.43,-258.52" /><path
         id="path180"
         style="fill:#4aabd3;fill-opacity:1;fill-rule:nonzero;stroke:none"
         d="m 1318.42,2908.58 c 0,-27.52 -9.23,-49.83 -20.6,-49.83 -11.37,0 -20.59,22.31 -20.59,49.83 0,27.52 9.22,49.83 20.59,49.83 11.37,0 20.6,-22.31 20.6,-49.83" /><path
         id="path182"
         style="fill:#fbc23d;fill-opacity:1;fill-rule:nonzero;stroke:none"
         d="m 1274.4,3255.62 c -55.48,0 -97.32,-83.08 -97.32,-193.25 0,-1.27 0.08,-2.48 0.09,-3.75 0.95,-108.28 42.39,-189.5 97.23,-189.5 15.19,0 29.31,6.42 41.87,17.73 1.33,6.59 2.15,13.9 2.15,21.73 0,16.22 -3.25,30.49 -8.21,39.59 -11.1,-24.69 -24.65,-38.59 -35.81,-38.59 -22.86,0 -55.87,57.97 -56.77,149.04 -0.02,1.27 -0.09,2.47 -0.09,3.75 0,93.27 33.69,152.79 56.86,152.79 23.18,0 56.85,-59.52 56.85,-152.79 0,-1.28 -0.07,-2.48 -0.08,-3.75 h 40.46 c 0.01,1.27 0.08,2.48 0.08,3.75 0,110.17 -41.82,193.25 -97.31,193.25" /><path
         id="path184"
         style="fill:#f8a33d;fill-opacity:1;fill-rule:nonzero;stroke:none"
         d="m 1331.25,3062.37 c 0,-1.28 -0.07,-2.48 -0.08,-3.75 h 40.46 c 0.01,1.27 0.08,2.48 0.08,3.75 0,20.39 -1.45,39.84 -4.13,58.02 -13.4,-11.53 -26.83,-16.93 -38.46,-19.05 1.32,-12.23 2.13,-25.18 2.13,-38.97" /><path
         id="path186"
         style="fill:#f8a33d;fill-opacity:1;fill-rule:nonzero;stroke:none"
         d="m 1207.35,2920.13 c 17.19,-31.88 40.53,-51.01 67.05,-51.01 15.19,0 29.31,6.42 41.87,17.73 1.33,6.59 2.15,13.9 2.15,21.73 0,16.22 -3.25,30.49 -8.21,39.59 -11.1,-24.69 -24.65,-38.59 -35.81,-38.59 -11.56,0 -25.72,14.89 -37.01,41.35 -7.23,-15.56 -18.61,-25.06 -30.04,-30.8" /><path
         id="path188"
         style="fill:#4aabd3;fill-opacity:1;fill-rule:nonzero;stroke:none"
         d="m 1930.4,2908.58 c 0,-27.52 -9.23,-49.83 -20.6,-49.83 -11.38,0 -20.6,22.31 -20.6,49.83 0,27.52 9.22,49.83 20.6,49.83 11.37,0 20.6,-22.31 20.6,-49.83" /><path
         id="path190"
         style="fill:#fbc23d;fill-opacity:1;fill-rule:nonzero;stroke:none"
         d="m 1886.38,3255.62 c -55.48,0 -97.32,-83.08 -97.32,-193.25 0,-1.27 0.08,-2.48 0.09,-3.75 0.95,-108.28 42.38,-189.5 97.23,-189.5 15.19,0 29.3,6.42 41.87,17.73 1.33,6.59 2.15,13.9 2.15,21.73 0,16.22 -3.26,30.49 -8.22,39.59 -11.09,-24.69 -24.65,-38.59 -35.8,-38.59 -22.86,0 -55.87,57.97 -56.78,149.04 -0.01,1.27 -0.08,2.47 -0.08,3.75 0,93.27 33.68,152.79 56.86,152.79 23.18,0 56.85,-59.52 56.85,-152.79 0,-1.28 -0.07,-2.48 -0.09,-3.75 h 40.46 c 0.01,1.27 0.09,2.48 0.09,3.75 0,110.17 -41.83,193.25 -97.31,193.25" /><path
         id="path192"
         style="fill:#f8a33d;fill-opacity:1;fill-rule:nonzero;stroke:none"
         d="m 1943.23,3062.37 c 0,-1.28 -0.07,-2.48 -0.09,-3.75 h 40.46 c 0.01,1.27 0.09,2.48 0.09,3.75 0,20.39 -1.45,39.84 -4.13,58.02 -13.4,-11.53 -26.84,-16.93 -38.47,-19.05 1.33,-12.23 2.14,-25.18 2.14,-38.97" /><path
         id="path194"
         style="fill:#f8a33d;fill-opacity:1;fill-rule:nonzero;stroke:none"
         d="m 1819.33,2920.13 c 17.19,-31.88 40.52,-51.01 67.05,-51.01 15.19,0 29.3,6.42 41.87,17.73 1.33,6.59 2.15,13.9 2.15,21.73 0,16.22 -3.26,30.49 -8.22,39.59 -11.09,-24.69 -24.65,-38.59 -35.8,-38.59 -11.57,0 -25.73,14.89 -37.01,41.35 -7.23,-15.56 -18.61,-25.06 -30.04,-30.8" /><path
         id="path196"
         style="fill:#4aabd3;fill-opacity:1;fill-rule:nonzero;stroke:none"
         d="m 2542.37,2908.58 c 0,-27.52 -9.23,-49.83 -20.59,-49.83 -11.38,0 -20.6,22.31 -20.6,49.83 0,27.52 9.22,49.83 20.6,49.83 11.36,0 20.59,-22.31 20.59,-49.83" /><path
         id="path198"
         style="fill:#fbc23d;fill-opacity:1;fill-rule:nonzero;stroke:none"
         d="m 2498.35,3255.62 c -55.48,0 -97.31,-83.08 -97.31,-193.25 0,-1.27 0.07,-2.48 0.08,-3.75 0.96,-108.28 42.39,-189.5 97.23,-189.5 15.19,0 29.31,6.42 41.87,17.73 1.33,6.59 2.15,13.9 2.15,21.73 0,16.22 -3.25,30.49 -8.22,39.59 -11.08,-24.69 -24.64,-38.59 -35.8,-38.59 -22.85,0 -55.87,57.97 -56.77,149.04 -0.01,1.27 -0.09,2.47 -0.09,3.75 0,93.27 33.69,152.79 56.86,152.79 23.18,0 56.86,-59.52 56.86,-152.79 0,-1.28 -0.07,-2.48 -0.09,-3.75 h 40.46 c 0.01,1.27 0.08,2.48 0.08,3.75 0,110.17 -41.82,193.25 -97.31,193.25" /><path
         id="path200"
         style="fill:#f8a33d;fill-opacity:1;fill-rule:nonzero;stroke:none"
         d="m 2555.21,3062.37 c 0,-1.28 -0.07,-2.48 -0.09,-3.75 h 40.46 c 0.01,1.27 0.08,2.48 0.08,3.75 0,20.39 -1.44,39.84 -4.13,58.02 -13.4,-11.53 -26.82,-16.93 -38.46,-19.05 1.32,-12.23 2.14,-25.18 2.14,-38.97" /><path
         id="path202"
         style="fill:#f8a33d;fill-opacity:1;fill-rule:nonzero;stroke:none"
         d="m 2431.3,2920.13 c 17.2,-31.88 40.53,-51.01 67.05,-51.01 15.19,0 29.31,6.42 41.87,17.73 1.33,6.59 2.15,13.9 2.15,21.73 0,16.22 -3.25,30.49 -8.22,39.59 -11.08,-24.69 -24.64,-38.59 -35.8,-38.59 -11.56,0 -25.72,14.89 -37.01,41.35 -7.22,-15.56 -18.61,-25.06 -30.04,-30.8" /><path
         id="path204"
         style="fill:#4aabd3;fill-opacity:1;fill-rule:nonzero;stroke:none"
         d="m 3154.35,2908.58 c 0,-27.52 -9.22,-49.83 -20.6,-49.83 -11.38,0 -20.6,22.31 -20.6,49.83 0,27.52 9.22,49.83 20.6,49.83 11.38,0 20.6,-22.31 20.6,-49.83" /><path
         id="path206"
         style="fill:#fbc23d;fill-opacity:1;fill-rule:nonzero;stroke:none"
         d="m 3110.33,3255.62 c -55.49,0 -97.32,-83.08 -97.32,-193.25 0,-1.27 0.08,-2.48 0.09,-3.75 0.95,-108.28 42.39,-189.5 97.23,-189.5 15.2,0 29.3,6.42 41.87,17.73 1.34,6.59 2.15,13.9 2.15,21.73 0,16.22 -3.26,30.49 -8.22,39.59 -11.09,-24.69 -24.65,-38.59 -35.8,-38.59 -22.86,0 -55.87,57.97 -56.78,149.04 -0.01,1.27 -0.08,2.47 -0.08,3.75 0,93.27 33.69,152.79 56.86,152.79 23.18,0 56.85,-59.52 56.85,-152.79 0,-1.28 -0.07,-2.48 -0.08,-3.75 h 40.45 c 0.01,1.27 0.09,2.48 0.09,3.75 0,110.17 -41.83,193.25 -97.31,193.25" /><path
         id="path208"
         style="fill:#f8a33d;fill-opacity:1;fill-rule:nonzero;stroke:none"
         d="m 3167.18,3062.37 c 0,-1.28 -0.07,-2.48 -0.08,-3.75 h 40.45 c 0.01,1.27 0.09,2.48 0.09,3.75 0,20.39 -1.45,39.84 -4.13,58.02 -13.4,-11.53 -26.83,-16.93 -38.46,-19.05 1.33,-12.23 2.13,-25.18 2.13,-38.97" /><path
         id="path210"
         style="fill:#f8a33d;fill-opacity:1;fill-rule:nonzero;stroke:none"
         d="m 3043.28,2920.13 c 17.19,-31.88 40.52,-51.01 67.05,-51.01 15.2,0 29.3,6.42 41.87,17.73 1.34,6.59 2.15,13.9 2.15,21.73 0,16.22 -3.26,30.49 -8.22,39.59 -11.09,-24.69 -24.65,-38.59 -35.8,-38.59 -11.56,0 -25.72,14.89 -37.01,41.35 -7.23,-15.56 -18.61,-25.06 -30.04,-30.8" /><path
         id="path212"
         style="fill:#4aabd3;fill-opacity:1;fill-rule:nonzero;stroke:none"
         d="m 3766.32,2908.58 c 0,-27.52 -9.22,-49.83 -20.6,-49.83 -11.36,0 -20.59,22.31 -20.59,49.83 0,27.52 9.23,49.83 20.59,49.83 11.38,0 20.6,-22.31 20.6,-49.83" /><path
         id="path214"
         style="fill:#fbc23d;fill-opacity:1;fill-rule:nonzero;stroke:none"
         d="m 3722.3,3255.62 c -55.47,0 -97.31,-83.08 -97.31,-193.25 0,-1.27 0.08,-2.48 0.09,-3.75 0.95,-108.28 42.38,-189.5 97.22,-189.5 15.2,0 29.31,6.42 41.88,17.73 1.33,6.59 2.14,13.9 2.14,21.73 0,16.22 -3.25,30.49 -8.21,39.59 -11.09,-24.69 -24.65,-38.59 -35.81,-38.59 -22.85,0 -55.86,57.97 -56.77,149.04 -0.01,1.27 -0.08,2.47 -0.08,3.75 0,93.27 33.68,152.79 56.85,152.79 23.19,0 56.86,-59.52 56.86,-152.79 0,-1.28 -0.08,-2.48 -0.09,-3.75 h 40.46 c 0.01,1.27 0.09,2.48 0.09,3.75 0,110.17 -41.83,193.25 -97.32,193.25" /><path
         id="path216"
         style="fill:#f8a33d;fill-opacity:1;fill-rule:nonzero;stroke:none"
         d="m 3779.16,3062.37 c 0,-1.28 -0.08,-2.48 -0.09,-3.75 h 40.46 c 0.01,1.27 0.09,2.48 0.09,3.75 0,20.39 -1.46,39.84 -4.14,58.02 -13.4,-11.53 -26.83,-16.93 -38.46,-19.05 1.33,-12.23 2.14,-25.18 2.14,-38.97" /><path
         id="path218"
         style="fill:#f8a33d;fill-opacity:1;fill-rule:nonzero;stroke:none"
         d="m 3655.25,2920.13 c 17.2,-31.88 40.53,-51.01 67.05,-51.01 15.2,0 29.31,6.42 41.88,17.73 1.33,6.59 2.14,13.9 2.14,21.73 0,16.22 -3.25,30.49 -8.21,39.59 -11.09,-24.69 -24.65,-38.59 -35.81,-38.59 -11.56,0 -25.72,14.89 -37.01,41.35 -7.22,-15.56 -18.6,-25.06 -30.04,-30.8" /><path
         id="path220"
         style="fill:#dce8f7;fill-opacity:1;fill-rule:nonzero;stroke:none"
         d="m 1785.17,451.941 c 0,-24.75 -188.65,-44.82 -421.35,-44.82 -232.71,0 -421.347,20.07 -421.347,44.82 0,24.758 188.637,44.829 421.347,44.829 232.7,0 421.35,-20.071 421.35,-44.829" /><path
         id="path222"
         style="fill:#f7917f;fill-opacity:1;fill-rule:nonzero;stroke:none"
         d="m 1312.34,1416.47 c -19.26,32.72 -43.07,56.86 -33.48,75.92 9.63,19.09 96.87,-29.33 113.8,-40.5 16.92,-11.15 11.68,-41.02 -30.92,-61.45 -16.32,-7.72 -33.63,-0.81 -49.4,26.03" /><path
         id="path224"
         style="fill:#f7917f;fill-opacity:1;fill-rule:nonzero;stroke:none"
         d="m 1359.29,1448.1 c -0.16,2.46 0.42,4.98 1.85,7.21 3.56,5.59 10.97,7.24 16.56,3.68 l 62.92,-40.06 c 5.6,-3.56 7.24,-10.97 3.68,-16.56 -3.56,-5.58 -10.97,-7.23 -16.56,-3.68 l -62.92,40.07 c -3.36,2.14 -5.29,5.65 -5.53,9.34" /><path
         id="path226"
         style="fill:#f4db41;fill-opacity:1;fill-rule:nonzero;stroke:none"
         d="m 1274.88,1848.92 -122.52,-202.95 c -16.32,-31.74 -54.29,-42.85 -81.26,-27.05 -26.97,15.81 -32.43,52.37 -16.11,84.12 l 127.17,249.77 c 28.08,56.22 73.01,39.77 98.79,17.88 42.54,-36.11 10.25,-90.04 -6.07,-121.77" /><path
         id="path228"
         style="fill:#f4db41;fill-opacity:1;fill-rule:nonzero;stroke:none"
         d="m 1075.63,1584.79 c 36.86,-32.94 225.05,-156 225.05,-156 l 42.09,54.4 c 0,0 -124.77,132.31 -187.93,191.33 -34.84,32.55 -77.26,31.29 -101.69,15.65 -23.07,-14.78 -23.76,-64.04 22.48,-105.38" /><path
         id="path230"
         style="fill:#202a32;fill-opacity:1;fill-rule:nonzero;stroke:none"
         d="m 1449.76,522.789 -7.5,-66.527 h 119.48 l -79.26,66.019 -32.72,0.508" /><path
         id="path232"
         style="fill:#294556;fill-opacity:1;fill-rule:nonzero;stroke:none"
         d="m 1504.88,1427.72 c 0,0 -5.35,106.16 -112.76,106.16 -107.4,0 -92.69,-106.16 -92.69,-106.16 l 144.75,-916.841 h 55.59 l 5.11,916.841" /><path
         id="path234"
         style="fill:#202a32;fill-opacity:1;fill-rule:nonzero;stroke:none"
         d="m 1173.01,522.789 -7.49,-66.527 H 1285 l -79.26,66.019 -32.73,0.508" /><path
         id="path236"
         style="fill:#1c303b;fill-opacity:1;fill-rule:nonzero;stroke:none"
         d="m 1343,1415 c 0,0 7.82,104.68 -99.58,104.68 -107.4,0 -91.83,-113.85 -91.83,-113.85 l 16.97,-894.951 h 55.59 L 1343,1415" /><path
         id="path238"
         style="fill:#294556;fill-opacity:1;fill-rule:nonzero;stroke:none"
         d="m 1145.95,1416.8 c 0,0 -0.39,-138.62 171.53,-149.27 5.56,0.04 10.95,0.16 16.2,0.34 135.97,8.43 171.81,149.46 171.81,149.46 v 105.08 l -354.31,-0.89 -5.23,-104.72" /><path
         id="path240"
         style="fill:#f5f45f;fill-opacity:1;fill-rule:nonzero;stroke:none"
         d="m 1341.52,2034.93 c -69.75,9.2 -121.35,-7.79 -148.49,-92.15 -31.9,-99.13 -59,-515.78 -59,-515.78 0,0 65.76,-54.48 184.21,-60.85 118.45,-6.36 205.6,54.47 205.6,54.47 0,0 -11.75,90.15 -29.15,275.74 -15.2,162.1 -22.16,321.3 -153.17,338.57" /><path
         id="path242"
         style="fill:#f68373;fill-opacity:1;fill-rule:nonzero;stroke:none"
         d="m 1308.37,2177.08 h 32.8 c 21.34,0 38.64,-17.3 38.64,-38.64 v -101.5 c 0,-30.4 -24.16,-36.04 -55.04,-36.04 -30.87,0 -55.03,5.64 -55.03,36.04 v 101.5 c 0,21.34 17.3,38.64 38.63,38.64" /><path
         id="path244"
         style="fill:#4e2634;fill-opacity:1;fill-rule:nonzero;stroke:none"
         d="m 1462.05,2259.47 c 0,-83.7 -72.05,-182.76 -160.92,-182.76 -88.87,0 -160.91,99.06 -160.91,182.76 0,83.7 11.39,145.31 160.91,145.31 149.53,0 160.92,-61.61 160.92,-145.31" /><path
         id="path246"
         style="fill:#f7917f;fill-opacity:1;fill-rule:nonzero;stroke:none"
         d="m 1325.14,2357.93 c 61.34,0 109.58,-25.79 132.3,-82.87 6.29,-15.8 20.08,-96.1 22.09,-113.78 8.03,-70.95 -60.68,-100.32 -139,-100.32 -78.31,0 -145.25,66.48 -149.49,148.48 -4.25,82.02 55.79,148.49 134.1,148.49" /><path
         id="path248"
         style="fill:#4e2634;fill-opacity:1;fill-rule:nonzero;stroke:none"
         d="m 1391.8,2374.2 c -121.88,0 -170.73,-43.71 -170.73,-43.71 l -50.27,-97.53 18.17,-92.96 c 0,0 28.65,-47.02 50.68,-57.92 22.04,-10.91 69.92,-17.29 107.65,-0.55 37.73,16.75 75.24,100.61 75.24,100.61 l 13.83,86.16 c 0,0 82.26,2.91 38.75,24.66 -25.34,12.67 -18.05,54.94 -46.51,79.8 -11.46,0.91 -23.69,1.44 -36.81,1.44" /><path
         id="path250"
         style="fill:#f7917f;fill-opacity:1;fill-rule:nonzero;stroke:none"
         d="m 1422.71,2241.66 c 15.32,0 28.57,-20.29 29.58,-45.32 1.02,-25.03 -10.58,-45.32 -25.91,-45.32 -15.33,0 -28.57,20.29 -29.59,45.32 -1.01,25.03 10.59,45.32 25.92,45.32" /><path
         id="path252"
         style="fill:#4e2634;fill-opacity:1;fill-rule:nonzero;stroke:none"
         d="m 1217.83,2360.19 c 0,-31.32 -54.81,-156.15 -64.45,-156.15 -9.63,0 -17.76,98.6 -17.76,129.92 0,31.3 21.42,59.23 43.54,59.23 38.84,0 38.67,-1.69 38.67,-33" /><path
         id="path254"
         style="fill:#4e2634;fill-opacity:1;fill-rule:nonzero;stroke:none"
         d="m 1447.04,2348.6 c 0,-10.16 -86.83,-11.14 -143.69,-11.14 -56.85,0 -102.94,5.28 -102.94,46.68 0,41.39 46.09,46.67 102.94,46.67 104.87,0 143.69,-72.03 143.69,-82.21" /><path
         id="path256"
         style="fill:#f7917f;fill-opacity:1;fill-rule:nonzero;stroke:none"
         d="m 1893.4,1873.35 c -36,-12.05 -64.56,-30.33 -81.22,-16.99 -16.68,13.38 48.81,88.67 63.24,102.91 14.42,14.24 42.55,2.92 53.69,-43 4.17,-17.56 -6.18,-33.07 -35.71,-42.92" /><path
         id="path258"
         style="fill:#f7917f;fill-opacity:1;fill-rule:nonzero;stroke:none"
         d="m 1872.21,1925.84 c -2.44,0.35 -4.79,1.45 -6.68,3.31 -4.72,4.64 -4.8,12.23 -0.16,16.96 l 52.25,53.24 c 4.64,4.74 12.24,4.8 16.96,0.16 4.72,-4.64 4.8,-12.23 0.16,-16.96 l -52.25,-53.23 c -2.79,-2.85 -6.63,-4.01 -10.28,-3.48" /><path
         id="path260"
         style="fill:#f4db41;fill-opacity:1;fill-rule:nonzero;stroke:none"
         d="m 1462.6,1926.46 173.1,-161.98 c 27.66,-22.55 30.65,-62 9.59,-85.11 -21.06,-23.1 -57.96,-20.84 -85.62,1.7 l -217.95,176.24 c -49.17,39.15 -23.75,79.67 3.02,100.36 44.15,34.12 90.2,-8.67 117.86,-31.21" /><path
         id="path262"
         style="fill:#f4db41;fill-opacity:1;fill-rule:nonzero;stroke:none"
         d="m 1679.62,1676.73 c 39.88,29.22 199.32,187.77 199.32,187.77 l -44.49,52.46 c 0,0 -155.33,-94.59 -226.16,-144.13 -39.08,-27.32 -46.65,-69.08 -36.42,-96.23 9.66,-25.63 57.71,-36.53 107.75,0.13" /><path
         id="path264"
         style="fill:#3f8991;fill-opacity:1;fill-rule:nonzero;stroke:none"
         d="m 4251.51,3512.07 c 0,-14.63 -11.84,-26.48 -26.47,-26.48 -14.62,0 -26.48,11.85 -26.48,26.48 0,14.61 11.86,26.47 26.48,26.47 14.63,0 26.47,-11.86 26.47,-26.47" /><path
         id="path266"
         style="fill:#3f8991;fill-opacity:1;fill-rule:nonzero;stroke:none"
         d="m 4442.72,3690.04 c 0,-4.06 -3.29,-7.36 -7.35,-7.36 -4.06,0 -7.35,3.3 -7.35,7.36 0,4.06 3.29,7.35 7.35,7.35 4.06,0 7.35,-3.29 7.35,-7.35" /><path
         id="path268"
         style="fill:#3f8991;fill-opacity:1;fill-rule:nonzero;stroke:none"
         d="m 3536.69,3382.63 c 0,-8.12 -6.59,-14.71 -14.72,-14.71 -8.11,0 -14.7,6.59 -14.7,14.71 0,8.12 6.59,14.71 14.7,14.71 8.13,0 14.72,-6.59 14.72,-14.71" /><path
         id="path270"
         style="fill:#3f8991;fill-opacity:1;fill-rule:nonzero;stroke:none"
         d="m 4745.72,2851.66 c 0,-7.32 -5.93,-13.24 -13.24,-13.24 -7.3,0 -13.23,5.92 -13.23,13.24 0,7.3 5.93,13.23 13.23,13.23 7.31,0 13.24,-5.93 13.24,-13.23" /><path
         id="path272"
         style="fill:#3f8991;fill-opacity:1;fill-rule:nonzero;stroke:none"
         d="m 4533.92,1904.42 c 0,-13.8 -11.2,-25 -25,-25 -13.81,0 -25.01,11.2 -25.01,25 0,13.81 11.2,25.01 25.01,25.01 13.8,0 25,-11.2 25,-25.01" /><path
         id="path274"
         style="fill:#3f8991;fill-opacity:1;fill-rule:nonzero;stroke:none"
         d="m 4833.97,2047.1 c 0,-14.62 -11.85,-26.48 -26.47,-26.48 -14.63,0 -26.47,11.86 -26.47,26.48 0,14.62 11.84,26.47 26.47,26.47 14.62,0 26.47,-11.85 26.47,-26.47" /><path
         id="path276"
         style="fill:#3f8991;fill-opacity:1;fill-rule:nonzero;stroke:none"
         d="m 3457.26,3197.3 c 0,-6.49 -5.27,-11.76 -11.77,-11.76 -6.5,0 -11.77,5.27 -11.77,11.76 0,6.5 5.27,11.77 11.77,11.77 6.5,0 11.77,-5.27 11.77,-11.77" /><path
         id="path278"
         style="fill:#3f8991;fill-opacity:1;fill-rule:nonzero;stroke:none"
         d="m 1765.79,3372.33 c 0,-8.93 -7.25,-16.18 -16.19,-16.18 -8.93,0 -16.17,7.25 -16.17,16.18 0,8.94 7.24,16.18 16.17,16.18 8.94,0 16.19,-7.24 16.19,-16.18" /><path
         id="path280"
         style="fill:#3f8991;fill-opacity:1;fill-rule:nonzero;stroke:none"
         d="m 1595.17,3567.95 c 0,-4.87 -3.95,-8.82 -8.83,-8.82 -4.88,0 -8.83,3.95 -8.83,8.82 0,4.88 3.95,8.83 8.83,8.83 4.88,0 8.83,-3.95 8.83,-8.83" /><path
         id="path282"
         style="fill:#3f8991;fill-opacity:1;fill-rule:nonzero;stroke:none"
         d="m 1909.93,3712.1 c 0,-16.25 -13.17,-29.42 -29.42,-29.42 -16.25,0 -29.42,13.17 -29.42,29.42 0,16.24 13.17,29.42 29.42,29.42 16.25,0 29.42,-13.18 29.42,-29.42" /><path
         id="path284"
         style="fill:#3f8991;fill-opacity:1;fill-rule:nonzero;stroke:none"
         d="m 1200.98,3704.75 c 0,-8.94 -7.24,-16.19 -16.18,-16.19 -8.94,0 -16.18,7.25 -16.18,16.19 0,8.93 7.24,16.17 16.18,16.17 8.94,0 16.18,-7.24 16.18,-16.17" /><path
         id="path286"
         style="fill:#3f8991;fill-opacity:1;fill-rule:nonzero;stroke:none"
         d="m 530.273,3278.2 c 0,-7.31 -5.925,-13.24 -13.238,-13.24 -7.312,0 -13.234,5.93 -13.234,13.24 0,7.31 5.922,13.24 13.234,13.24 7.313,0 13.238,-5.93 13.238,-13.24" /><path
         id="path288"
         style="fill:#3f8991;fill-opacity:1;fill-rule:nonzero;stroke:none"
         d="m 439.078,3523.83 c 0,-13 -10.531,-23.53 -23.531,-23.53 -12.996,0 -23.535,10.53 -23.535,23.53 0,13 10.539,23.53 23.535,23.53 13,0 23.531,-10.53 23.531,-23.53" /><path
         id="path290"
         style="fill:#3f8991;fill-opacity:1;fill-rule:nonzero;stroke:none"
         d="m 283.168,2220.66 c 0,-6.5 -5.27,-11.76 -11.766,-11.76 -6.5,0 -11.769,5.26 -11.769,11.76 0,6.5 5.269,11.76 11.769,11.76 6.496,0 11.766,-5.26 11.766,-11.76" /><path
         id="path292"
         style="fill:#3f8991;fill-opacity:1;fill-rule:nonzero;stroke:none"
         d="m 695.004,2120.64 c 0,-14.62 -11.852,-26.47 -26.473,-26.47 -14.621,0 -26.476,11.85 -26.476,26.47 0,14.62 11.855,26.48 26.476,26.48 14.621,0 26.473,-11.86 26.473,-26.48" /></g></g></svg>